<svg id="svg" version="1.1" xmlns="http://www.w3.org/2000/svg" xmlns:xlink="http://www.w3.org/1999/xlink" width="400" height="400" viewBox="0, 0, 400,400"><g id="svgg"><path id="path0" d="M213.633 155.939 C 213.077 156.978,213.077 159.014,213.634 159.905 C 214.036 160.550,215.303 160.593,231.115 160.505 C 249.784 160.401,249.041 160.507,248.544 158.022 C 248.088 155.738,247.751 155.692,231.000 155.624 C 222.640 155.590,215.410 155.465,214.933 155.346 C 214.327 155.195,213.935 155.374,213.633 155.939 M87.515 156.800 C 87.285 157.390,87.263 158.338,87.463 159.113 L 87.800 160.427 108.600 160.421 C 131.287 160.414,130.400 160.504,130.400 158.200 C 130.400 155.895,131.268 155.987,108.650 155.889 L 87.904 155.800 87.515 156.800 M277.469 157.476 C 276.453 160.524,275.707 160.400,295.085 160.400 L 312.017 160.400 312.469 159.409 C 312.774 158.739,312.799 157.992,312.546 157.109 L 312.171 155.800 295.141 155.676 L 278.111 155.552 277.469 157.476 M137.600 158.203 L 137.600 160.405 166.495 160.303 C 198.164 160.190,198.192 160.188,193.509 158.027 C 189.585 156.216,186.407 156.018,161.100 156.009 L 137.600 156.000 137.600 158.203 M87.379 169.404 C 86.900 172.594,85.536 172.400,108.475 172.400 C 130.362 172.400,130.400 172.396,130.400 170.360 C 130.400 167.394,132.024 167.600,108.610 167.600 L 87.649 167.600 87.379 169.404 M137.680 169.900 L 137.800 172.200 171.700 172.302 L 205.600 172.405 205.600 171.565 C 205.600 171.104,205.240 170.269,204.800 169.709 C 204.360 169.150,204.000 168.446,204.000 168.146 C 204.000 167.689,198.584 167.600,170.780 167.600 L 137.560 167.600 137.680 169.900 M213.467 167.867 C 212.713 168.621,213.204 171.986,214.100 172.207 C 215.239 172.489,253.059 172.275,253.348 171.986 C 253.466 171.868,253.098 170.833,252.530 169.686 L 251.498 167.600 232.616 167.600 C 222.230 167.600,213.613 167.720,213.467 167.867 M273.405 169.427 C 271.554 172.587,270.352 172.400,292.560 172.400 C 314.945 172.400,313.188 172.682,312.597 169.183 L 312.330 167.600 293.403 167.600 L 274.476 167.600 273.405 169.427 M100.000 182.200 L 100.000 184.416 108.700 184.308 L 117.400 184.200 117.400 182.200 L 117.400 180.200 108.700 180.092 L 100.000 179.984 100.000 182.200 M150.000 182.200 L 150.000 184.415 159.100 184.308 L 168.200 184.200 168.200 182.200 L 168.200 180.200 159.100 180.092 L 150.000 179.985 150.000 182.200 M187.835 180.344 C 187.718 180.533,187.757 181.478,187.922 182.444 L 188.222 184.200 197.167 184.200 L 206.112 184.200 206.635 182.428 C 206.923 181.453,207.067 180.508,206.955 180.328 C 206.684 179.889,188.106 179.905,187.835 180.344 M225.862 180.300 C 225.759 180.466,225.772 181.458,225.890 182.505 L 226.105 184.409 241.753 184.305 L 257.400 184.200 257.258 183.200 C 257.180 182.650,256.861 181.705,256.548 181.100 L 255.979 180.000 241.013 180.000 C 232.782 180.000,225.964 180.135,225.862 180.300 M269.229 180.925 C 269.035 181.434,268.815 182.379,268.738 183.025 L 268.600 184.200 284.300 184.305 L 300.000 184.409 300.000 182.205 L 300.000 180.000 284.790 180.000 L 269.580 180.000 269.229 180.925 M266.400 191.946 C 265.142 192.304,264.228 195.793,265.227 196.425 C 266.594 197.290,277.944 196.865,279.255 195.900 C 283.271 192.944,282.211 192.015,274.800 192.001 C 271.610 191.994,268.640 191.916,268.200 191.826 C 267.760 191.736,266.950 191.790,266.400 191.946 M100.162 192.554 C 100.045 192.859,100.006 193.894,100.075 194.854 L 100.200 196.600 108.349 196.708 C 114.022 196.784,116.665 196.678,117.049 196.359 C 117.840 195.703,117.777 192.554,116.967 192.243 C 115.542 191.696,100.384 191.977,100.162 192.554 M150.267 192.267 C 149.690 192.843,149.986 196.309,150.633 196.557 C 150.981 196.691,161.971 196.800,175.056 196.800 L 198.847 196.800 200.689 195.059 C 204.112 191.825,205.511 192.000,176.279 192.000 C 162.119 192.000,150.413 192.120,150.267 192.267 M226.159 192.563 C 226.044 192.863,226.006 193.894,226.075 194.854 L 226.200 196.600 234.567 196.600 L 242.933 196.600 243.500 194.900 C 244.206 192.782,244.631 192.761,245.448 194.804 C 246.260 196.832,246.358 196.853,254.400 196.714 L 261.000 196.600 260.930 194.642 C 260.890 193.516,260.635 192.545,260.330 192.357 C 259.337 191.742,226.397 191.941,226.159 192.563 M282.186 192.492 C 282.080 192.771,282.227 193.810,282.513 194.800 L 283.035 196.600 291.538 196.708 L 300.040 196.816 299.920 194.508 L 299.800 192.200 291.090 192.092 C 284.340 192.009,282.337 192.099,282.186 192.492 M100.267 203.867 C 99.954 204.180,99.908 207.294,100.204 208.067 C 100.477 208.779,116.173 208.686,117.038 207.968 C 117.697 207.421,117.777 205.478,117.186 204.374 C 116.766 203.589,101.017 203.117,100.267 203.867 M150.700 204.032 C 149.564 204.694,149.719 207.919,150.900 208.197 C 151.395 208.313,163.093 208.452,176.896 208.504 C 202.528 208.602,202.400 208.608,202.400 207.239 C 202.400 206.757,200.270 204.552,199.326 204.058 C 198.170 203.452,151.738 203.428,150.700 204.032 M226.275 203.859 C 225.853 204.281,225.949 207.921,226.390 208.194 C 226.604 208.326,230.381 208.472,234.782 208.517 L 242.786 208.600 243.247 207.487 C 243.556 206.739,243.587 205.950,243.339 205.087 L 242.971 203.800 234.760 203.692 C 230.244 203.633,226.426 203.708,226.275 203.859 M249.412 204.361 C 248.265 207.976,249.705 208.410,263.168 208.512 L 274.727 208.600 275.783 206.851 C 277.710 203.661,278.320 203.814,263.123 203.695 C 250.127 203.593,249.649 203.616,249.412 204.361 M282.818 204.366 C 280.962 207.835,282.197 208.421,291.579 208.517 C 300.668 208.611,300.208 208.785,299.928 205.362 L 299.800 203.800 291.518 203.692 C 283.652 203.589,283.216 203.623,282.818 204.366 M100.162 216.154 C 100.045 216.459,100.006 217.494,100.075 218.454 L 100.200 220.200 108.000 220.313 C 117.718 220.455,117.600 220.480,117.600 218.272 C 117.600 217.331,117.384 216.344,117.120 216.080 C 116.374 215.334,100.450 215.404,100.162 216.154 M150.500 215.865 C 149.728 216.177,149.841 219.853,150.633 220.157 C 150.981 220.291,154.836 220.400,159.200 220.400 C 168.474 220.400,168.400 220.416,168.400 218.386 C 168.400 215.666,168.162 215.596,159.071 215.632 C 154.632 215.649,150.775 215.754,150.500 215.865 M188.501 216.100 C 187.610 217.222,187.526 219.532,188.360 219.978 C 189.383 220.526,205.380 220.546,206.399 220.001 C 207.185 219.580,207.060 218.381,206.030 216.456 C 205.474 215.417,189.304 215.089,188.501 216.100 M226.165 216.146 C 226.047 216.455,226.006 217.494,226.075 218.454 L 226.200 220.200 234.444 220.308 C 243.907 220.432,243.969 220.412,243.354 217.492 L 242.997 215.800 234.689 215.692 C 227.848 215.603,226.343 215.683,226.165 216.146 M253.434 215.944 C 253.317 216.134,253.614 217.217,254.094 218.352 L 254.965 220.416 263.170 220.308 L 271.375 220.200 271.718 218.467 C 272.308 215.482,272.682 215.600,262.636 215.600 C 257.692 215.600,253.551 215.755,253.434 215.944 M282.793 216.618 C 281.433 220.194,282.016 220.437,291.651 220.308 L 299.800 220.200 299.800 218.000 L 299.800 215.800 291.493 215.692 L 283.186 215.584 282.793 216.618 M87.362 228.554 C 87.244 228.863,87.204 229.810,87.273 230.658 L 87.400 232.200 108.800 232.200 L 130.200 232.200 130.200 230.200 L 130.200 228.200 108.889 228.096 C 90.896 228.009,87.544 228.080,87.362 228.554 M137.512 228.300 C 137.438 228.465,137.386 229.410,137.398 230.400 L 137.418 232.200 170.718 232.302 L 204.018 232.405 204.426 231.502 C 204.651 231.006,205.086 230.160,205.393 229.622 C 205.700 229.085,205.862 228.500,205.752 228.322 C 205.501 227.915,137.695 227.893,137.512 228.300 M213.363 228.553 C 213.244 228.863,213.204 229.810,213.273 230.658 L 213.400 232.200 228.400 232.200 L 243.400 232.200 243.400 230.200 L 243.400 228.200 228.489 228.095 C 215.973 228.007,213.544 228.081,213.363 228.553 M257.913 228.220 C 257.792 228.341,257.909 229.286,258.172 230.320 L 258.651 232.200 262.485 232.314 C 266.771 232.441,268.000 231.735,268.000 229.146 L 268.000 228.000 263.067 228.000 C 260.353 228.000,258.034 228.099,257.913 228.220 M282.563 228.553 C 282.444 228.863,282.404 229.810,282.473 230.658 L 282.600 232.200 297.600 232.200 L 312.600 232.200 312.600 230.200 L 312.600 228.200 297.689 228.095 C 285.173 228.007,282.744 228.081,282.563 228.553 M213.580 240.180 C 213.120 240.640,213.086 243.601,213.533 244.305 C 213.784 244.700,217.034 244.787,228.425 244.705 L 242.997 244.600 243.360 242.876 C 243.971 239.979,244.456 240.074,228.280 239.929 C 219.585 239.851,213.810 239.949,213.580 240.180 M283.075 240.182 C 282.315 240.942,282.211 242.252,282.790 243.774 L 283.180 244.800 297.745 244.800 L 312.309 244.800 312.569 243.069 C 313.058 239.808,313.840 240.000,300.057 239.997 C 293.316 239.995,286.889 239.884,285.775 239.750 C 284.180 239.558,283.608 239.650,283.075 240.182 M87.430 240.666 C 87.288 241.036,87.289 242.119,87.432 243.073 L 87.692 244.807 108.746 244.704 L 129.800 244.600 130.178 243.069 C 130.929 240.027,132.273 240.213,108.701 240.096 C 89.322 240.001,87.668 240.045,87.430 240.666 M137.600 242.397 L 137.600 244.800 160.916 244.800 C 179.589 244.800,184.667 244.689,186.416 244.240 C 187.617 243.932,189.621 243.472,190.869 243.218 C 192.117 242.964,193.340 242.514,193.586 242.217 C 193.832 241.921,194.488 241.564,195.045 241.424 C 195.601 241.285,195.984 240.952,195.895 240.685 C 195.771 240.312,189.018 240.176,166.667 240.097 L 137.600 239.995 137.600 242.397 M261.898 240.500 C 261.399 241.832,262.180 242.508,263.216 241.640 C 264.053 240.939,264.111 240.756,263.600 240.414 C 262.782 239.867,262.123 239.900,261.898 240.500 " stroke="none" fill="#e7ecf5" fill-rule="evenodd"></path><path id="path1" d="M0.000 200.000 L 0.000 400.000 200.000 400.000 L 400.000 400.000 400.000 200.000 L 400.000 0.000 200.000 0.000 L 0.000 0.000 0.000 200.000 M130.999 154.949 C 131.605 155.393,131.750 156.019,131.750 158.200 C 131.750 162.305,133.592 162.000,108.804 162.000 C 84.424 162.000,86.400 162.335,86.400 158.200 C 86.400 156.524,86.597 155.163,86.880 154.880 C 87.632 154.128,129.967 154.195,130.999 154.949 M189.000 155.298 C 189.660 155.681,190.761 155.996,191.446 155.998 C 192.131 155.999,193.121 156.335,193.646 156.745 C 194.171 157.155,195.008 157.618,195.507 157.774 C 196.527 158.094,198.795 160.356,198.798 161.057 C 198.802 161.952,197.196 162.000,167.357 162.000 L 137.180 162.000 136.790 160.974 C 136.287 159.651,136.289 156.743,136.794 155.415 L 137.189 154.377 162.494 154.489 C 185.713 154.591,187.899 154.658,189.000 155.298 M248.311 155.023 C 248.800 155.365,249.200 156.045,249.200 156.534 C 249.200 157.022,249.442 157.777,249.738 158.211 C 250.622 159.508,250.779 160.764,250.136 161.407 C 249.222 162.321,213.796 162.293,212.489 161.377 C 211.295 160.541,211.149 155.502,212.300 154.832 C 213.572 154.091,247.235 154.269,248.311 155.023 M313.120 154.880 C 313.859 155.619,313.745 160.598,312.971 161.371 C 312.331 162.012,277.851 162.378,276.244 161.761 C 275.221 161.369,274.991 158.973,275.854 157.698 C 276.263 157.094,276.814 156.105,277.079 155.500 L 277.561 154.400 295.101 154.400 C 308.209 154.400,312.761 154.521,313.120 154.880 M131.406 167.210 C 132.181 168.464,132.067 171.821,131.213 172.900 L 130.342 174.000 109.102 174.000 C 84.486 174.000,86.400 174.337,86.400 170.005 C 86.400 168.535,86.520 167.213,86.667 167.067 C 87.124 166.609,131.122 166.751,131.406 167.210 M205.271 168.142 C 206.544 169.737,207.057 171.973,206.423 173.158 L 205.972 174.000 171.809 174.000 L 137.645 174.000 137.023 173.111 C 136.275 172.044,136.176 167.984,136.880 167.280 C 137.246 166.914,145.320 166.800,170.780 166.800 L 204.200 166.800 205.271 168.142 M253.362 168.571 C 254.462 170.448,254.718 172.722,253.920 173.520 C 253.559 173.881,248.452 174.000,233.395 174.000 C 210.102 174.000,211.600 174.271,211.600 170.064 C 211.600 166.564,210.092 166.800,232.442 166.800 L 252.324 166.800 253.362 168.571 M313.519 169.747 C 313.720 174.368,315.547 174.000,292.418 174.000 C 277.506 174.000,272.440 173.880,272.080 173.520 C 270.977 172.417,271.874 167.642,273.292 167.066 C 273.571 166.952,282.710 166.891,293.600 166.930 L 313.400 167.000 313.519 169.747 M118.426 179.214 C 119.371 179.719,119.563 184.001,118.675 184.738 C 117.675 185.568,99.933 185.397,99.315 184.552 C 98.705 183.718,98.641 181.271,99.190 179.826 L 99.580 178.800 108.616 178.800 C 114.080 178.800,117.958 178.964,118.426 179.214 M168.771 179.365 C 169.053 179.705,169.192 180.941,169.120 182.465 L 169.000 185.000 159.400 185.107 C 148.533 185.229,148.800 185.305,148.800 182.097 C 148.800 178.668,148.393 178.800,158.965 178.800 C 166.520 178.800,168.392 178.908,168.771 179.365 M208.024 179.646 C 208.526 180.583,208.193 183.874,207.514 184.700 C 206.936 185.402,187.581 185.421,186.880 184.720 C 186.094 183.934,186.262 179.720,187.100 179.232 C 188.663 178.322,207.515 178.694,208.024 179.646 M257.374 179.602 C 257.743 179.971,258.019 181.132,258.088 182.602 L 258.200 185.000 241.882 185.105 C 231.088 185.174,225.299 185.067,224.782 184.790 C 223.571 184.142,223.656 180.288,224.900 179.412 C 226.212 178.488,256.437 178.665,257.374 179.602 M300.786 179.574 C 301.402 180.725,301.303 184.217,300.638 184.768 C 300.230 185.107,295.674 185.228,283.944 185.209 C 266.373 185.181,265.963 185.130,267.351 183.148 C 267.708 182.639,268.000 181.781,268.000 181.242 C 268.000 178.769,267.785 178.800,284.848 178.800 C 299.787 178.800,300.387 178.829,300.786 179.574 M118.633 190.976 C 119.335 191.937,119.398 196.442,118.720 197.120 C 118.374 197.466,115.633 197.600,108.910 197.600 L 99.580 197.600 99.190 196.574 C 98.425 194.560,98.942 191.090,100.125 190.299 C 101.266 189.536,118.029 190.150,118.633 190.976 M203.374 190.390 C 205.123 191.055,204.534 192.810,201.392 196.300 L 200.222 197.600 174.925 197.600 C 150.324 197.600,149.617 197.579,149.214 196.826 C 148.183 194.899,149.054 190.566,150.531 190.278 C 152.436 189.907,202.382 190.013,203.374 190.390 M260.000 190.352 C 260.759 190.558,261.137 191.078,261.571 192.512 C 261.884 193.550,262.258 194.400,262.401 194.400 C 262.889 194.400,264.051 193.000,264.726 191.600 L 265.400 190.200 282.418 190.096 C 296.012 190.013,299.581 190.098,300.158 190.520 C 301.078 191.193,301.577 196.064,300.818 196.978 C 300.219 197.701,245.443 197.917,244.999 197.198 C 244.834 196.931,244.501 196.932,244.002 197.199 C 242.608 197.945,225.590 197.715,224.731 196.938 C 223.483 195.808,223.726 192.613,225.169 191.169 L 226.338 190.000 242.669 190.040 C 251.651 190.062,259.450 190.202,260.000 190.352 M118.426 202.814 C 119.475 203.375,119.558 208.142,118.538 209.269 C 117.577 210.331,100.425 210.394,99.549 209.339 C 98.969 208.640,98.796 204.357,99.296 203.100 C 99.625 202.275,116.936 202.016,118.426 202.814 M201.485 204.083 C 202.428 205.009,203.200 205.977,203.200 206.234 C 203.200 206.492,203.470 206.926,203.800 207.200 C 204.589 207.855,204.569 209.450,203.767 209.757 C 202.060 210.412,150.107 210.011,149.549 209.338 C 148.779 208.410,148.837 203.275,149.623 202.777 C 149.955 202.567,160.736 202.410,174.985 202.406 L 199.770 202.400 201.485 204.083 M244.209 202.957 C 245.303 203.757,245.323 207.956,244.238 209.157 C 243.055 210.465,226.146 210.466,224.962 209.158 C 223.863 207.944,223.873 203.775,224.976 202.968 C 226.099 202.147,243.088 202.138,244.209 202.957 M277.447 202.876 C 278.149 204.012,277.562 206.894,276.312 208.450 L 275.066 210.000 262.803 210.000 L 250.539 210.000 249.637 209.039 C 249.112 208.480,248.642 207.351,248.513 206.339 C 248.391 205.383,248.135 204.295,247.943 203.921 C 247.695 203.438,247.797 203.125,248.297 202.834 C 249.361 202.214,277.063 202.255,277.447 202.876 M300.713 203.100 C 301.270 204.457,301.040 209.204,300.398 209.610 C 299.078 210.444,282.483 210.083,281.600 209.200 C 280.552 208.152,280.463 204.236,281.462 203.131 C 282.455 202.034,300.263 202.005,300.713 203.100 M118.720 215.280 C 119.550 216.110,119.325 220.275,118.400 221.200 C 117.307 222.293,100.471 222.450,99.580 221.376 C 98.875 220.526,98.601 216.719,99.169 215.657 C 99.718 214.633,117.725 214.285,118.720 215.280 M169.118 217.692 C 169.317 222.231,169.848 222.000,159.235 222.000 C 148.818 222.000,149.175 222.116,148.886 218.633 C 148.554 214.631,148.166 214.770,159.318 214.893 L 169.000 215.000 169.118 217.692 M207.348 215.405 C 208.252 216.310,208.586 219.302,207.935 220.663 L 207.390 221.800 197.702 221.907 C 188.443 222.009,187.978 221.978,187.207 221.207 C 186.275 220.275,186.046 216.114,186.880 215.280 C 187.666 214.494,206.552 214.609,207.348 215.405 M244.296 215.300 C 245.296 216.570,245.220 219.515,244.154 220.781 L 243.129 222.000 234.546 222.000 C 224.553 222.000,224.000 221.806,224.000 218.307 C 224.000 214.780,223.941 214.800,234.574 214.800 C 241.560 214.800,244.001 214.926,244.296 215.300 M273.730 215.662 C 274.227 216.450,271.998 221.362,270.962 221.759 C 267.596 223.051,253.600 221.784,253.600 220.187 C 253.600 219.918,253.335 219.478,253.011 219.209 C 252.171 218.512,251.795 216.128,252.409 215.389 C 253.192 214.446,273.124 214.701,273.730 215.662 M300.831 215.657 C 301.399 216.719,301.125 220.526,300.420 221.376 C 299.514 222.467,283.274 222.288,281.854 221.171 C 280.517 220.120,280.269 215.949,281.500 215.232 C 283.072 214.317,300.316 214.696,300.831 215.657 M131.377 227.689 C 132.155 228.800,132.186 231.592,131.432 232.624 C 130.763 233.540,88.855 234.086,87.199 233.199 C 86.263 232.699,86.018 228.142,86.880 227.280 C 87.242 226.918,92.715 226.800,109.057 226.800 L 130.755 226.800 131.377 227.689 M206.389 227.386 C 207.010 228.135,206.543 231.170,205.760 231.471 C 205.452 231.589,205.200 231.941,205.200 232.253 C 205.200 233.512,202.919 233.600,170.403 233.600 C 133.406 233.600,136.400 233.887,136.400 230.345 C 136.400 226.409,132.520 226.800,171.565 226.800 C 201.239 226.800,205.968 226.880,206.389 227.386 M244.192 227.345 C 245.312 228.164,245.396 231.699,244.318 232.674 C 243.349 233.552,216.206 234.009,213.196 233.199 L 211.600 232.769 211.600 230.204 C 211.600 228.184,211.749 227.553,212.300 227.232 C 213.458 226.558,243.260 226.663,244.192 227.345 M268.789 227.386 C 269.239 227.929,269.132 230.015,268.548 232.088 C 268.287 233.013,265.960 233.605,262.800 233.550 C 258.411 233.474,257.860 233.246,257.393 231.311 C 257.169 230.384,256.764 229.404,256.493 229.133 C 255.871 228.511,255.866 227.894,256.480 227.280 C 257.236 226.524,268.151 226.618,268.789 227.386 M313.120 227.280 C 313.966 228.126,313.738 232.698,312.826 233.186 C 311.777 233.747,284.324 233.741,282.300 233.179 L 280.800 232.762 280.800 230.201 C 280.800 228.184,280.949 227.553,281.500 227.232 C 282.566 226.611,312.497 226.657,313.120 227.280 M129.989 238.355 C 131.431 238.757,132.233 241.092,131.763 243.522 L 131.400 245.400 109.000 245.400 L 86.600 245.400 86.483 242.517 C 86.283 237.611,84.405 237.993,108.500 238.040 C 119.775 238.062,129.445 238.204,129.989 238.355 M198.451 238.691 C 198.838 239.078,198.800 239.337,198.271 239.922 C 197.902 240.330,197.600 240.871,197.600 241.126 C 197.600 241.381,197.015 241.866,196.300 242.205 C 195.585 242.544,194.550 243.084,194.000 243.405 C 193.450 243.726,192.550 243.992,192.000 243.997 C 191.450 244.001,190.460 244.363,189.800 244.800 C 188.173 245.877,137.688 246.070,136.802 245.003 C 136.160 244.229,136.433 239.524,137.171 238.634 C 137.880 237.781,197.596 237.835,198.451 238.691 M243.222 238.412 C 244.954 239.339,245.612 243.435,244.297 245.100 C 243.738 245.808,212.787 245.827,212.080 245.120 C 211.559 244.599,211.423 240.080,211.906 239.366 C 212.745 238.126,213.969 238.024,228.126 238.012 C 237.211 238.004,242.734 238.151,243.222 238.412 M264.571 238.629 C 266.277 240.335,264.508 244.400,262.059 244.400 C 260.860 244.400,260.363 239.094,261.500 238.432 C 262.533 237.830,263.858 237.915,264.571 238.629 M312.817 238.817 C 313.516 239.516,313.617 240.053,313.517 242.517 L 313.400 245.400 297.883 245.505 C 279.900 245.626,280.800 245.797,280.800 242.262 C 280.800 237.821,279.816 238.070,297.500 238.032 C 311.590 238.001,312.023 238.023,312.817 238.817 " stroke="none" fill="#0b64fc" fill-rule="evenodd"></path><path id="path2" d="M98.328 155.100 C 104.118 155.162,113.478 155.162,119.128 155.100 C 124.778 155.037,120.040 154.986,108.600 154.986 C 97.160 154.986,92.538 155.037,98.328 155.100 M149.929 155.100 C 156.379 155.162,166.819 155.162,173.129 155.100 C 179.438 155.038,174.160 154.987,161.400 154.987 C 148.640 154.987,143.478 155.038,149.929 155.100 M230.924 155.099 C 233.962 155.167,238.822 155.167,241.724 155.099 C 244.626 155.031,242.140 154.975,236.200 154.975 C 230.260 154.975,227.886 155.031,230.924 155.099 M295.100 155.099 C 298.235 155.167,303.365 155.167,306.500 155.099 C 309.635 155.032,307.070 154.976,300.800 154.976 C 294.530 154.976,291.965 155.032,295.100 155.099 M136.901 158.200 C 136.905 159.080,136.987 159.393,137.083 158.895 C 137.179 158.398,137.175 157.678,137.075 157.295 C 136.975 156.913,136.896 157.320,136.901 158.200 M212.046 158.256 C 212.021 158.951,212.312 159.852,212.700 160.275 C 213.085 160.694,213.235 160.795,213.034 160.498 C 212.832 160.201,212.538 159.293,212.380 158.479 C 212.096 157.019,212.091 157.016,212.046 158.256 M249.115 160.000 C 249.018 160.660,249.087 161.200,249.269 161.200 C 249.451 161.200,249.600 160.660,249.600 160.000 C 249.600 159.340,249.530 158.800,249.445 158.800 C 249.360 158.800,249.212 159.340,249.115 160.000 M98.328 161.500 C 104.118 161.562,113.478 161.562,119.128 161.500 C 124.778 161.437,120.040 161.386,108.600 161.386 C 97.160 161.386,92.538 161.437,98.328 161.500 M152.900 161.500 C 160.985 161.560,174.215 161.560,182.300 161.500 C 190.385 161.439,183.770 161.390,167.600 161.390 C 151.430 161.390,144.815 161.439,152.900 161.500 M222.500 161.500 C 227.285 161.563,235.115 161.563,239.900 161.500 C 244.685 161.436,240.770 161.384,231.200 161.384 C 221.630 161.384,217.715 161.436,222.500 161.500 M136.920 170.000 C 136.920 171.210,136.995 171.705,137.087 171.100 C 137.178 170.495,137.178 169.505,137.087 168.900 C 136.995 168.295,136.920 168.790,136.920 170.000 M137.542 172.902 C 137.709 173.069,152.685 173.159,170.822 173.102 L 203.800 173.000 170.520 172.800 C 152.216 172.690,137.376 172.736,137.542 172.902 M213.544 172.904 C 213.711 173.071,222.837 173.161,233.824 173.104 L 253.800 173.000 233.520 172.800 C 222.366 172.690,213.376 172.737,213.544 172.904 M99.500 173.100 C 105.055 173.162,114.145 173.162,119.700 173.100 C 125.255 173.037,120.710 172.986,109.600 172.986 C 98.490 172.986,93.945 173.037,99.500 173.100 M283.300 173.100 C 288.305 173.163,296.495 173.163,301.500 173.100 C 306.505 173.036,302.410 172.984,292.400 172.984 C 282.390 172.984,278.295 173.036,283.300 173.100 M99.314 182.200 C 99.317 183.300,99.395 183.703,99.487 183.095 C 99.579 182.486,99.577 181.586,99.482 181.095 C 99.387 180.603,99.311 181.100,99.314 182.200 M118.514 182.200 C 118.517 183.300,118.595 183.703,118.687 183.095 C 118.779 182.486,118.777 181.586,118.682 181.095 C 118.587 180.603,118.511 181.100,118.514 182.200 M149.314 182.200 C 149.317 183.300,149.395 183.703,149.487 183.095 C 149.579 182.486,149.577 181.586,149.482 181.095 C 149.387 180.603,149.311 181.100,149.314 182.200 M186.914 182.200 C 186.917 183.300,186.995 183.703,187.087 183.095 C 187.179 182.486,187.177 181.586,187.082 181.095 C 186.987 180.603,186.911 181.100,186.914 182.200 M224.914 182.200 C 224.917 183.300,224.995 183.703,225.087 183.095 C 225.179 182.486,225.177 181.586,225.082 181.095 C 224.987 180.603,224.911 181.100,224.914 182.200 M300.514 182.200 C 300.517 183.300,300.595 183.703,300.687 183.095 C 300.779 182.486,300.777 181.586,300.682 181.095 C 300.587 180.603,300.511 181.100,300.514 182.200 M104.522 191.099 C 106.899 191.170,110.679 191.169,112.922 191.098 C 115.165 191.027,113.220 190.969,108.600 190.969 C 103.980 190.970,102.145 191.028,104.522 191.099 M176.978 191.098 C 196.803 191.182,202.636 191.318,202.909 191.703 C 203.168 192.068,203.218 192.041,203.097 191.600 C 202.954 191.075,199.728 190.999,177.167 190.995 L 151.400 190.991 176.978 191.098 M225.762 191.700 C 225.002 192.598,225.002 192.599,225.826 191.905 C 226.577 191.273,228.154 191.199,243.026 191.100 L 259.400 190.991 242.962 190.895 L 226.524 190.800 225.762 191.700 M282.524 191.099 C 285.783 191.167,291.003 191.166,294.124 191.099 C 297.246 191.031,294.580 190.976,288.200 190.977 C 281.820 190.977,279.266 191.032,282.524 191.099 M117.670 191.800 C 118.039 192.240,118.414 193.320,118.503 194.200 L 118.666 195.800 118.733 194.162 C 118.784 192.904,118.591 192.347,117.900 191.762 C 117.007 191.006,117.005 191.006,117.670 191.800 M300.520 194.400 C 300.520 195.610,300.595 196.105,300.687 195.500 C 300.778 194.895,300.778 193.905,300.687 193.300 C 300.595 192.695,300.520 193.190,300.520 194.400 M99.301 194.200 C 99.305 195.080,99.387 195.393,99.483 194.895 C 99.579 194.398,99.575 193.678,99.475 193.295 C 99.375 192.913,99.296 193.320,99.301 194.200 M263.099 195.164 C 261.983 196.346,261.759 196.804,262.300 196.795 C 262.465 196.792,263.007 196.162,263.504 195.395 C 264.604 193.696,264.526 193.652,263.099 195.164 M281.600 195.367 C 281.600 195.678,281.375 196.024,281.100 196.135 C 280.801 196.256,280.882 196.350,281.300 196.368 C 281.744 196.388,282.000 196.107,282.000 195.600 C 282.000 195.160,281.910 194.800,281.800 194.800 C 281.690 194.800,281.600 195.055,281.600 195.367 M104.900 203.098 C 106.825 203.171,109.975 203.171,111.900 203.098 C 113.825 203.025,112.250 202.965,108.400 202.965 C 104.550 202.965,102.975 203.025,104.900 203.098 M162.129 203.100 C 168.689 203.162,179.309 203.161,185.729 203.100 C 192.148 203.038,186.780 202.987,173.800 202.988 C 160.820 202.988,155.568 203.038,162.129 203.100 M231.300 203.098 C 233.225 203.171,236.375 203.171,238.300 203.098 C 240.225 203.025,238.650 202.965,234.800 202.965 C 230.950 202.965,229.375 203.025,231.300 203.098 M256.925 203.099 C 260.404 203.166,265.984 203.166,269.325 203.099 C 272.666 203.032,269.820 202.978,263.000 202.978 C 256.180 202.978,253.446 203.033,256.925 203.099 M288.100 203.098 C 290.025 203.171,293.175 203.171,295.100 203.098 C 297.025 203.025,295.450 202.965,291.600 202.965 C 287.750 202.965,286.175 203.025,288.100 203.098 M201.000 204.800 C 201.859 205.680,202.652 206.400,202.762 206.400 C 202.872 206.400,202.259 205.680,201.400 204.800 C 200.541 203.920,199.748 203.200,199.638 203.200 C 199.528 203.200,200.141 203.920,201.000 204.800 M99.293 206.000 C 99.293 206.770,99.375 207.085,99.476 206.700 C 99.576 206.315,99.576 205.685,99.476 205.300 C 99.375 204.915,99.293 205.230,99.293 206.000 M118.501 206.200 C 118.505 207.080,118.587 207.393,118.683 206.895 C 118.779 206.398,118.775 205.678,118.675 205.295 C 118.575 204.913,118.496 205.320,118.501 206.200 M300.501 206.200 C 300.505 207.080,300.587 207.393,300.683 206.895 C 300.779 206.398,300.775 205.678,300.675 205.295 C 300.575 204.913,300.496 205.320,300.501 206.200 M104.522 209.499 C 106.899 209.570,110.679 209.569,112.922 209.498 C 115.165 209.427,113.220 209.369,108.600 209.369 C 103.980 209.370,102.145 209.428,104.522 209.499 M164.329 209.500 C 171.440 209.561,182.960 209.561,189.929 209.500 C 196.898 209.438,191.080 209.388,177.000 209.388 C 162.920 209.388,157.218 209.439,164.329 209.500 M230.522 209.499 C 232.899 209.570,236.679 209.569,238.922 209.498 C 241.165 209.427,239.220 209.369,234.600 209.369 C 229.980 209.370,228.145 209.428,230.522 209.499 M257.125 209.499 C 260.493 209.566,265.893 209.566,269.125 209.499 C 272.356 209.432,269.600 209.377,263.000 209.377 C 256.400 209.377,253.756 209.432,257.125 209.499 M287.322 209.499 C 289.699 209.570,293.479 209.569,295.722 209.498 C 297.965 209.427,296.020 209.369,291.400 209.369 C 286.780 209.370,284.945 209.428,287.322 209.499 M99.301 218.200 C 99.305 219.080,99.387 219.393,99.483 218.895 C 99.579 218.398,99.575 217.678,99.475 217.295 C 99.375 216.913,99.296 217.320,99.301 218.200 M118.501 218.200 C 118.505 219.080,118.587 219.393,118.683 218.895 C 118.779 218.398,118.775 217.678,118.675 217.295 C 118.575 216.913,118.496 217.320,118.501 218.200 M300.501 218.200 C 300.505 219.080,300.587 219.393,300.683 218.895 C 300.779 218.398,300.775 217.678,300.675 217.295 C 300.575 216.913,300.496 217.320,300.501 218.200 M186.893 218.400 C 186.893 219.170,186.975 219.485,187.076 219.100 C 187.176 218.715,187.176 218.085,187.076 217.700 C 186.975 217.315,186.893 217.630,186.893 218.400 M254.349 220.500 C 254.843 221.130,255.682 221.191,262.749 221.109 L 270.600 221.018 262.830 220.900 C 257.460 220.819,254.866 220.631,254.430 220.291 C 253.874 219.858,253.865 219.882,254.349 220.500 M105.700 221.098 C 107.845 221.170,111.355 221.170,113.500 221.098 C 115.645 221.026,113.890 220.967,109.600 220.967 C 105.310 220.967,103.555 221.026,105.700 221.098 M154.700 221.099 C 157.175 221.169,161.225 221.169,163.700 221.099 C 166.175 221.028,164.150 220.971,159.200 220.971 C 154.250 220.971,152.225 221.028,154.700 221.099 M192.923 221.099 C 195.520 221.169,199.660 221.168,202.123 221.098 C 204.585 221.028,202.460 220.971,197.400 220.972 C 192.340 220.972,190.325 221.029,192.923 221.099 M231.500 221.098 C 233.315 221.172,236.285 221.172,238.100 221.098 C 239.915 221.023,238.430 220.963,234.800 220.963 C 231.170 220.963,229.685 221.023,231.500 221.098 M286.921 221.098 C 289.077 221.171,292.497 221.170,294.521 221.098 C 296.544 221.025,294.780 220.966,290.600 220.967 C 286.420 220.967,284.764 221.026,286.921 221.098 M137.149 232.500 C 137.665 233.158,139.680 233.194,170.749 233.102 L 203.800 233.005 170.838 232.900 C 145.291 232.819,137.733 232.683,137.238 232.298 C 136.673 231.857,136.663 231.880,137.149 232.500 M98.328 233.100 C 104.118 233.162,113.478 233.162,119.128 233.100 C 124.778 233.037,120.040 232.986,108.600 232.986 C 97.160 232.986,92.538 233.037,98.328 233.100 M221.100 233.099 C 225.115 233.165,231.685 233.165,235.700 233.099 C 239.715 233.034,236.430 232.981,228.400 232.981 C 220.370 232.981,217.085 233.034,221.100 233.099 M261.511 233.093 C 262.451 233.178,263.891 233.177,264.711 233.091 C 265.530 233.005,264.760 232.936,263.000 232.937 C 261.240 232.939,260.570 233.009,261.511 233.093 M290.300 233.099 C 294.315 233.165,300.885 233.165,304.900 233.099 C 308.915 233.034,305.630 232.981,297.600 232.981 C 289.570 232.981,286.285 233.034,290.300 233.099 M98.328 239.100 C 104.118 239.162,113.478 239.162,119.128 239.100 C 124.778 239.037,120.040 238.986,108.600 238.986 C 97.160 238.986,92.538 239.037,98.328 239.100 M167.745 239.100 L 196.890 239.205 196.717 240.382 C 196.622 241.028,196.692 241.467,196.872 241.355 C 197.053 241.244,197.200 240.623,197.200 239.976 L 197.200 238.800 167.900 238.897 L 138.600 238.995 167.745 239.100 M228.300 239.099 C 230.995 239.168,235.405 239.168,238.100 239.099 C 240.795 239.030,238.590 238.973,233.200 238.973 C 227.810 238.973,225.605 239.030,228.300 239.099 M261.862 239.100 C 261.760 239.265,262.272 239.400,263.000 239.400 C 263.728 239.400,264.240 239.265,264.138 239.100 C 264.036 238.935,263.524 238.800,263.000 238.800 C 262.476 238.800,261.964 238.935,261.862 239.100 M297.500 239.099 C 300.195 239.168,304.605 239.168,307.300 239.099 C 309.995 239.030,307.790 238.973,302.400 238.973 C 297.010 238.973,294.805 239.030,297.500 239.099 M136.920 242.400 C 136.920 243.610,136.995 244.105,137.087 243.500 C 137.178 242.895,137.178 241.905,137.087 241.300 C 136.995 240.695,136.920 241.190,136.920 242.400 " stroke="none" fill="#84a4fc" fill-rule="evenodd"></path><path id="path3" d="M86.880 154.880 C 86.597 155.163,86.400 156.524,86.400 158.200 C 86.400 162.335,84.424 162.000,108.804 162.000 C 133.592 162.000,131.750 162.305,131.750 158.200 C 131.750 156.019,131.605 155.393,130.999 154.949 C 129.967 154.195,87.632 154.128,86.880 154.880 M136.794 155.415 C 136.289 156.743,136.287 159.651,136.790 160.974 L 137.180 162.000 167.357 162.000 C 197.196 162.000,198.802 161.952,198.798 161.057 C 198.795 160.356,196.527 158.094,195.507 157.774 C 195.008 157.618,194.171 157.155,193.646 156.745 C 193.121 156.335,192.131 155.999,191.446 155.998 C 190.761 155.996,189.660 155.681,189.000 155.298 C 187.899 154.658,185.713 154.591,162.494 154.489 L 137.189 154.377 136.794 155.415 M212.300 154.832 C 211.149 155.502,211.295 160.541,212.489 161.377 C 213.796 162.293,249.222 162.321,250.136 161.407 C 250.779 160.764,250.622 159.508,249.738 158.211 C 249.442 157.777,249.200 157.022,249.200 156.534 C 249.200 154.440,248.829 154.399,230.211 154.412 C 219.267 154.420,212.745 154.573,212.300 154.832 M277.079 155.500 C 276.814 156.105,276.263 157.094,275.854 157.698 C 274.991 158.973,275.221 161.369,276.244 161.761 C 277.851 162.378,312.331 162.012,312.971 161.371 C 313.745 160.598,313.859 155.619,313.120 154.880 C 312.761 154.521,308.209 154.400,295.101 154.400 L 277.561 154.400 277.079 155.500 M130.632 155.776 C 131.364 156.777,131.364 159.623,130.632 160.624 C 130.003 161.485,88.925 162.066,87.628 161.232 C 86.717 160.646,86.543 156.315,87.396 155.461 C 88.519 154.338,129.801 154.639,130.632 155.776 M185.400 155.182 C 191.707 156.548,193.063 156.912,193.597 157.378 C 193.929 157.668,194.589 158.024,195.064 158.168 C 195.540 158.313,196.389 159.035,196.952 159.772 L 197.975 161.113 197.087 161.351 C 195.944 161.658,139.280 161.664,138.138 161.358 C 136.572 160.938,136.392 155.477,137.931 155.070 C 139.209 154.732,183.809 154.837,185.400 155.182 M247.327 155.172 C 248.331 155.554,249.600 158.375,249.600 160.225 C 249.600 161.558,249.186 161.589,230.882 161.595 L 213.964 161.600 212.932 160.568 C 211.735 159.371,211.822 156.232,213.079 155.300 C 213.900 154.691,245.748 154.572,247.327 155.172 M312.571 155.429 C 312.966 155.823,313.200 156.763,313.200 157.952 C 313.200 161.451,314.567 161.224,294.200 161.105 L 276.200 161.000 276.068 160.071 C 275.996 159.560,276.221 158.542,276.568 157.810 C 276.916 157.078,277.200 156.317,277.200 156.120 C 277.200 154.876,278.234 154.800,295.051 154.800 C 309.874 154.800,312.020 154.877,312.571 155.429 M86.667 167.067 C 86.520 167.213,86.400 168.535,86.400 170.005 C 86.400 174.337,84.486 174.000,109.102 174.000 L 130.342 174.000 131.213 172.900 C 132.067 171.821,132.181 168.464,131.406 167.210 C 131.122 166.751,87.124 166.609,86.667 167.067 M136.880 167.280 C 136.176 167.984,136.275 172.044,137.023 173.111 L 137.645 174.000 171.809 174.000 L 205.972 174.000 206.423 173.158 C 207.057 171.973,206.544 169.737,205.271 168.142 L 204.200 166.800 170.780 166.800 C 145.320 166.800,137.246 166.914,136.880 167.280 M212.080 167.280 C 211.203 168.157,211.478 172.255,212.475 173.184 C 213.541 174.177,252.944 174.496,253.920 173.520 C 254.718 172.722,254.462 170.448,253.362 168.571 L 252.324 166.800 232.442 166.800 C 217.512 166.800,212.440 166.920,212.080 167.280 M273.292 167.066 C 271.874 167.642,270.977 172.417,272.080 173.520 C 272.440 173.880,277.506 174.000,292.418 174.000 C 315.547 174.000,313.720 174.368,313.519 169.747 L 313.400 167.000 293.600 166.930 C 282.710 166.891,273.571 166.952,273.292 167.066 M130.567 167.443 C 131.288 167.720,131.466 171.360,130.809 172.400 C 130.186 173.385,88.019 173.515,87.302 172.534 C 86.780 171.820,86.600 167.934,87.067 167.467 C 87.400 167.133,129.701 167.110,130.567 167.443 M204.895 168.500 C 206.204 170.219,206.540 171.391,206.008 172.385 C 205.574 173.195,205.372 173.200,171.600 173.200 C 133.241 173.200,136.800 173.521,136.800 170.059 C 136.800 166.917,133.453 167.200,170.595 167.200 L 203.905 167.200 204.895 168.500 M253.073 169.270 C 253.792 170.577,254.024 171.450,253.843 172.170 L 253.585 173.200 233.668 173.200 C 210.648 173.200,211.690 173.372,212.236 169.666 C 212.620 167.061,211.431 167.198,232.722 167.304 L 252.045 167.400 253.073 169.270 M313.120 169.488 C 313.354 173.533,315.216 173.200,292.394 173.200 L 272.415 173.200 272.164 172.200 C 271.824 170.845,272.284 169.188,273.303 168.096 L 274.147 167.192 293.573 167.296 L 313.000 167.400 313.120 169.488 M99.190 179.826 C 98.327 182.097,98.869 184.835,100.289 185.378 C 100.830 185.584,100.785 185.449,100.100 184.809 C 99.113 183.888,98.861 181.380,99.614 179.974 C 100.185 178.907,116.412 178.773,117.911 179.823 C 119.644 181.037,119.041 184.409,117.000 184.911 C 116.349 185.071,116.390 185.116,117.220 185.154 C 118.746 185.223,119.200 184.484,119.200 181.934 C 119.200 178.769,119.306 178.800,108.616 178.800 L 99.580 178.800 99.190 179.826 M149.214 179.574 C 148.641 180.644,148.695 183.703,149.300 184.531 C 149.752 185.149,150.729 185.205,159.400 185.107 L 169.000 185.000 169.120 182.465 C 169.301 178.637,169.754 178.800,158.965 178.800 C 150.143 178.800,149.605 178.843,149.214 179.574 M187.100 179.232 C 185.317 180.270,186.392 185.244,188.380 185.154 C 189.210 185.116,189.251 185.071,188.600 184.911 C 186.878 184.487,186.090 181.743,187.191 180.000 C 187.640 179.288,206.141 178.890,207.183 179.570 C 208.431 180.383,207.488 184.147,205.874 184.797 C 205.038 185.134,205.046 185.150,206.051 185.175 C 207.814 185.217,209.091 181.639,208.024 179.646 C 207.515 178.694,188.663 178.322,187.100 179.232 M224.900 179.412 C 222.849 180.856,223.884 185.214,226.274 185.194 C 226.834 185.190,226.771 185.073,226.000 184.685 C 224.706 184.033,224.362 181.146,225.437 179.959 C 226.521 178.761,254.967 178.787,256.493 179.987 C 257.854 181.058,258.357 183.941,257.319 184.727 C 256.638 185.243,256.643 185.264,257.400 185.121 C 258.406 184.932,258.385 180.614,257.374 179.602 C 256.437 178.665,226.212 178.488,224.900 179.412 M268.662 179.531 C 268.298 179.934,268.000 180.704,268.000 181.242 C 268.000 181.781,267.714 182.630,267.365 183.128 C 266.604 184.215,267.183 185.215,268.549 185.175 C 269.359 185.151,269.355 185.131,268.458 184.772 C 267.761 184.493,267.595 184.214,267.819 183.697 C 267.986 183.314,268.205 182.411,268.306 181.691 C 268.657 179.194,268.615 179.200,285.075 179.200 C 299.394 179.200,299.988 179.230,300.386 179.974 C 301.135 181.373,300.885 183.885,299.900 184.859 L 299.000 185.750 300.000 185.129 C 301.133 184.425,301.615 181.124,300.806 179.612 C 300.162 178.408,269.748 178.332,268.662 179.531 M168.373 179.768 C 168.644 180.094,168.792 181.239,168.722 182.468 L 168.600 184.600 159.450 184.708 C 149.283 184.827,149.200 184.808,149.200 182.325 C 149.200 179.104,148.900 179.200,158.965 179.200 C 166.194 179.200,167.992 179.308,168.373 179.768 M105.280 185.098 C 107.194 185.171,110.434 185.171,112.480 185.098 C 114.526 185.026,112.960 184.966,109.000 184.965 C 105.040 184.965,103.366 185.024,105.280 185.098 M193.721 185.098 C 195.877 185.171,199.297 185.170,201.321 185.098 C 203.344 185.025,201.580 184.966,197.400 184.967 C 193.220 184.967,191.564 185.026,193.721 185.098 M234.326 185.100 C 238.355 185.165,244.835 185.165,248.726 185.099 C 252.617 185.034,249.320 184.980,241.400 184.981 C 233.480 184.981,230.297 185.034,234.326 185.100 M276.900 185.099 C 280.805 185.165,287.195 185.165,291.100 185.099 C 295.005 185.034,291.810 184.980,284.000 184.980 C 276.190 184.980,272.995 185.034,276.900 185.099 M100.125 190.299 C 98.942 191.090,98.425 194.560,99.190 196.574 L 99.580 197.600 108.910 197.600 C 119.590 197.600,119.200 197.729,119.200 194.196 C 119.200 190.097,119.490 190.218,109.333 190.090 C 104.530 190.030,100.386 190.124,100.125 190.299 M150.531 190.278 C 149.054 190.566,148.183 194.899,149.214 196.826 C 149.617 197.579,150.324 197.600,174.925 197.600 L 200.222 197.600 201.392 196.300 C 204.534 192.810,205.123 191.055,203.374 190.390 C 202.382 190.013,152.436 189.907,150.531 190.278 M225.169 191.169 C 223.726 192.613,223.483 195.808,224.731 196.938 C 225.590 197.715,242.608 197.945,244.002 197.199 C 244.501 196.932,244.834 196.931,244.999 197.198 C 245.443 197.917,300.219 197.701,300.818 196.978 C 301.577 196.064,301.078 191.193,300.158 190.520 C 299.581 190.098,296.012 190.013,282.418 190.096 L 265.400 190.200 264.726 191.600 C 264.051 193.000,262.889 194.400,262.401 194.400 C 262.258 194.400,261.884 193.550,261.571 192.512 C 260.807 189.984,261.586 190.086,242.669 190.040 L 226.338 190.000 225.169 191.169 M117.791 191.664 C 118.786 192.447,118.871 192.715,118.699 194.507 C 118.440 197.208,118.518 197.187,108.690 197.194 L 99.980 197.200 99.556 196.100 C 99.062 194.819,99.313 192.227,100.013 191.384 C 100.909 190.305,116.373 190.549,117.791 191.664 M203.119 192.222 C 203.213 193.178,202.879 193.852,201.583 195.325 L 199.927 197.206 174.867 197.103 L 149.808 197.000 149.478 195.194 C 148.633 190.570,146.485 190.896,177.400 190.953 L 203.000 191.000 203.119 192.222 M259.983 191.309 C 260.677 191.661,261.150 192.443,261.595 193.981 L 262.224 196.156 263.136 195.178 C 263.638 194.640,264.388 193.435,264.802 192.500 L 265.555 190.800 282.555 190.800 L 299.555 190.800 300.177 191.689 C 300.913 192.740,301.007 196.033,300.320 196.720 C 299.639 197.401,283.103 197.396,282.011 196.714 C 281.408 196.337,280.936 196.334,279.916 196.699 C 278.434 197.230,246.560 197.393,245.719 196.874 C 245.456 196.711,245.078 196.141,244.881 195.607 L 244.522 194.637 243.956 195.818 L 243.390 197.000 234.795 197.098 C 230.068 197.152,225.993 197.062,225.739 196.898 C 224.760 196.264,224.670 193.074,225.598 191.894 L 226.458 190.800 242.729 190.806 C 254.894 190.810,259.248 190.937,259.983 191.309 M99.296 203.100 C 98.796 204.357,98.969 208.640,99.549 209.339 C 100.425 210.394,117.577 210.331,118.538 209.269 C 119.558 208.142,119.475 203.375,118.426 202.814 C 116.936 202.016,99.625 202.275,99.296 203.100 M149.623 202.777 C 148.837 203.275,148.779 208.410,149.549 209.338 C 150.107 210.011,202.060 210.412,203.767 209.757 C 204.569 209.450,204.589 207.855,203.800 207.200 C 203.470 206.926,203.200 206.492,203.200 206.234 C 203.200 205.977,202.428 205.009,201.485 204.083 L 199.770 202.400 174.985 202.406 C 160.736 202.410,149.955 202.567,149.623 202.777 M224.976 202.968 C 223.873 203.775,223.863 207.944,224.962 209.158 C 226.146 210.466,243.055 210.465,244.238 209.157 C 245.323 207.956,245.303 203.757,244.209 202.957 C 243.088 202.138,226.099 202.147,224.976 202.968 M248.297 202.834 C 247.797 203.125,247.695 203.438,247.943 203.921 C 248.135 204.295,248.391 205.383,248.513 206.339 C 248.642 207.351,249.112 208.480,249.637 209.039 L 250.539 210.000 262.803 210.000 L 275.066 210.000 276.312 208.450 C 277.562 206.894,278.149 204.012,277.447 202.876 C 277.063 202.255,249.361 202.214,248.297 202.834 M281.462 203.131 C 280.463 204.236,280.552 208.152,281.600 209.200 C 282.483 210.083,299.078 210.444,300.398 209.610 C 301.040 209.204,301.270 204.457,300.713 203.100 C 300.263 202.005,282.455 202.034,281.462 203.131 M117.764 203.324 C 119.038 204.255,119.098 207.339,117.867 208.570 L 116.836 209.600 108.667 209.600 C 99.316 209.600,99.454 209.650,99.420 206.263 C 99.384 202.586,98.824 202.800,108.511 202.800 C 114.920 202.800,117.226 202.931,117.764 203.324 M200.989 204.432 C 202.675 205.986,203.991 208.542,203.406 209.127 C 202.861 209.673,150.485 209.445,149.934 208.894 C 149.261 208.221,149.282 204.265,149.963 203.444 C 150.444 202.865,152.949 202.800,174.858 202.800 L 199.218 202.800 200.989 204.432 M243.520 203.280 C 244.244 204.004,244.134 208.209,243.371 208.971 C 242.693 209.650,227.143 209.933,226.125 209.286 C 224.833 208.464,224.554 204.669,225.685 203.300 C 226.262 202.601,242.822 202.582,243.520 203.280 M277.117 204.600 C 277.210 205.874,276.979 206.546,275.983 207.900 L 274.731 209.600 263.065 209.587 C 249.373 209.571,248.800 209.383,248.800 204.893 C 248.800 202.676,248.055 202.780,263.172 202.895 L 277.000 203.000 277.117 204.600 M300.311 203.500 C 300.801 204.696,300.631 208.240,300.051 208.939 C 298.454 210.863,281.815 209.657,281.575 207.600 C 281.374 205.880,281.671 203.986,282.229 203.429 C 283.231 202.426,299.899 202.492,300.311 203.500 M99.169 215.657 C 98.601 216.719,98.875 220.526,99.580 221.376 C 100.471 222.450,117.307 222.293,118.400 221.200 C 119.325 220.275,119.550 216.110,118.720 215.280 C 117.725 214.285,99.718 214.633,99.169 215.657 M149.173 215.650 C 148.601 216.718,148.872 220.522,149.580 221.376 C 150.022 221.908,151.443 222.000,159.235 222.000 C 169.848 222.000,169.317 222.231,169.118 217.692 L 169.000 215.000 159.318 214.893 C 149.752 214.787,149.630 214.796,149.173 215.650 M186.880 215.280 C 186.046 216.114,186.275 220.275,187.207 221.207 C 187.978 221.978,188.443 222.009,197.702 221.907 L 207.390 221.800 207.935 220.663 C 208.586 219.302,208.252 216.310,207.348 215.405 C 206.552 214.609,187.666 214.494,186.880 215.280 M224.623 215.689 C 223.630 217.107,223.815 219.851,224.982 221.018 C 225.963 222.000,225.967 222.000,234.546 222.000 L 243.129 222.000 244.154 220.781 C 245.220 219.515,245.296 216.570,244.296 215.300 C 243.478 214.261,225.372 214.619,224.623 215.689 M252.409 215.389 C 251.795 216.128,252.171 218.512,253.011 219.209 C 253.335 219.478,253.600 219.918,253.600 220.187 C 253.600 221.784,267.596 223.051,270.962 221.759 C 271.998 221.362,274.227 216.450,273.730 215.662 C 273.124 214.701,253.192 214.446,252.409 215.389 M281.500 215.232 C 280.269 215.949,280.517 220.120,281.854 221.171 C 283.274 222.288,299.514 222.467,300.420 221.376 C 301.125 220.526,301.399 216.719,300.831 215.657 C 300.316 214.696,283.072 214.317,281.500 215.232 M117.944 215.557 C 118.943 216.190,119.012 219.388,118.047 220.353 C 117.237 221.163,116.825 221.200,108.590 221.200 L 99.980 221.200 99.590 220.174 C 99.376 219.610,99.200 218.721,99.200 218.200 C 99.200 217.679,99.376 216.790,99.590 216.226 L 99.980 215.200 108.690 215.206 C 113.481 215.209,117.645 215.367,117.944 215.557 M168.721 217.734 C 168.907 221.315,169.222 221.200,159.160 221.200 L 150.418 221.200 149.772 220.213 C 149.174 219.301,149.234 216.575,149.874 215.493 C 149.974 215.324,154.229 215.234,159.328 215.293 L 168.600 215.400 168.721 217.734 M206.564 215.724 C 207.654 216.521,207.945 219.958,206.983 220.662 C 205.582 221.687,188.616 221.416,187.552 220.352 C 186.611 219.411,186.713 216.156,187.703 215.528 C 188.605 214.955,205.756 215.134,206.564 215.724 M243.367 215.443 C 244.145 215.741,244.268 219.972,243.520 220.720 C 243.177 221.063,240.615 221.200,234.529 221.200 L 226.018 221.200 225.372 220.213 C 224.660 219.127,224.906 216.055,225.749 215.506 C 226.290 215.154,242.462 215.095,243.367 215.443 M273.017 215.701 C 273.342 216.546,271.728 220.542,270.937 220.854 C 270.532 221.013,266.739 221.156,262.509 221.172 L 254.818 221.200 254.161 220.196 C 253.057 218.512,252.419 216.264,252.885 215.700 C 253.482 214.977,272.740 214.978,273.017 215.701 M300.550 216.724 C 300.783 217.536,300.789 218.618,300.565 219.524 L 300.200 221.000 291.754 221.108 C 281.803 221.235,281.324 221.086,281.548 217.945 C 281.751 215.102,281.489 215.173,291.340 215.292 L 300.171 215.400 300.550 216.724 M86.880 227.280 C 86.018 228.142,86.263 232.699,87.199 233.199 C 88.855 234.086,130.763 233.540,131.432 232.624 C 132.186 231.592,132.155 228.800,131.377 227.689 L 130.755 226.800 109.057 226.800 C 92.715 226.800,87.242 226.918,86.880 227.280 M136.814 227.574 C 136.165 228.787,136.302 232.245,137.029 232.971 C 137.590 233.533,141.167 233.600,170.403 233.600 C 202.919 233.600,205.200 233.512,205.200 232.253 C 205.200 231.941,205.452 231.589,205.760 231.471 C 206.543 231.170,207.010 228.135,206.389 227.386 C 205.519 226.339,137.377 226.522,136.814 227.574 M212.300 227.232 C 211.749 227.553,211.600 228.184,211.600 230.204 L 211.600 232.769 213.196 233.199 C 216.206 234.009,243.349 233.552,244.318 232.674 C 245.396 231.699,245.312 228.164,244.192 227.345 C 243.260 226.663,213.458 226.558,212.300 227.232 M256.480 227.280 C 255.866 227.894,255.871 228.511,256.493 229.133 C 256.764 229.404,257.169 230.384,257.393 231.311 C 257.860 233.246,258.411 233.474,262.800 233.550 C 265.960 233.605,268.287 233.013,268.548 232.088 C 269.132 230.015,269.239 227.929,268.789 227.386 C 268.151 226.618,257.236 226.524,256.480 227.280 M281.500 227.232 C 280.949 227.553,280.800 228.184,280.800 230.201 L 280.800 232.762 282.300 233.179 C 284.324 233.741,311.777 233.747,312.826 233.186 C 313.738 232.698,313.966 228.126,313.120 227.280 C 312.497 226.657,282.566 226.611,281.500 227.232 M130.547 227.712 C 131.733 228.579,131.317 232.480,130.000 232.844 C 128.321 233.308,88.447 233.253,87.574 232.786 C 86.668 232.301,86.450 228.510,87.280 227.680 C 87.999 226.961,129.562 226.992,130.547 227.712 M206.125 228.053 C 206.632 228.857,205.932 230.725,204.575 232.189 L 203.638 233.200 170.699 233.200 C 145.613 233.200,137.646 233.086,137.280 232.720 C 136.656 232.096,136.658 228.302,137.282 227.678 C 138.129 226.831,205.586 227.198,206.125 228.053 M243.520 227.680 C 244.350 228.510,244.132 232.301,243.226 232.786 C 242.046 233.417,214.486 233.333,213.225 232.694 C 211.896 232.020,211.726 228.637,212.978 227.761 C 214.063 227.000,242.765 226.925,243.520 227.680 M268.363 227.755 C 268.947 228.459,268.338 231.433,267.423 232.348 C 266.667 233.104,261.737 233.467,259.636 232.922 C 257.871 232.464,256.288 228.610,257.492 227.700 C 258.471 226.960,267.742 227.007,268.363 227.755 M312.720 227.680 C 313.550 228.510,313.332 232.301,312.426 232.786 C 311.246 233.418,283.682 233.333,282.440 232.694 C 281.181 232.047,281.028 228.607,282.219 227.736 C 283.229 226.998,311.985 226.945,312.720 227.680 M87.183 238.817 C 86.484 239.516,86.383 240.053,86.483 242.517 L 86.600 245.400 109.000 245.400 L 131.400 245.400 131.763 243.522 C 132.233 241.092,131.431 238.757,129.989 238.355 C 127.133 237.559,88.019 237.981,87.183 238.817 M137.171 238.634 C 136.433 239.524,136.160 244.229,136.802 245.003 C 137.688 246.070,188.173 245.877,189.800 244.800 C 190.460 244.363,191.450 244.001,192.000 243.997 C 192.550 243.992,193.450 243.726,194.000 243.405 C 194.550 243.084,195.585 242.544,196.300 242.205 C 197.015 241.866,197.600 241.381,197.600 241.126 C 197.600 240.871,197.902 240.330,198.271 239.922 C 199.812 238.219,199.590 238.206,167.835 238.093 C 140.449 237.995,137.661 238.044,137.171 238.634 M213.000 238.478 C 212.560 238.727,212.068 239.127,211.906 239.366 C 211.423 240.080,211.559 244.599,212.080 245.120 C 212.787 245.827,243.738 245.808,244.297 245.100 C 245.612 243.435,244.954 239.339,243.222 238.412 C 242.108 237.816,214.060 237.877,213.000 238.478 M261.500 238.432 C 260.363 239.094,260.860 244.400,262.059 244.400 C 262.990 244.400,264.720 243.150,264.944 242.316 C 265.821 239.039,263.995 236.979,261.500 238.432 M282.400 238.278 C 280.636 238.908,279.994 244.340,281.583 245.191 C 282.099 245.467,287.640 245.574,297.883 245.505 L 313.400 245.400 313.517 242.517 C 313.712 237.713,314.718 237.994,297.500 238.032 C 289.525 238.049,282.730 238.160,282.400 238.278 M129.726 239.260 C 130.999 239.930,131.187 240.369,131.194 242.692 C 131.202 245.432,133.024 245.240,108.200 245.111 L 87.000 245.000 86.879 242.655 C 86.664 238.496,84.960 238.800,108.488 238.800 C 123.059 238.800,129.101 238.931,129.726 239.260 M197.200 239.940 C 197.200 241.216,194.798 242.604,189.600 244.335 C 186.484 245.372,138.287 245.727,137.280 244.720 C 136.108 243.548,136.887 239.618,138.400 239.078 C 138.730 238.960,152.095 238.849,168.100 238.832 L 197.200 238.800 197.200 239.940 M243.359 239.555 C 243.876 240.126,244.013 240.880,243.921 242.655 L 243.800 245.000 229.000 245.111 C 211.185 245.246,212.400 245.435,212.400 242.524 C 212.400 238.586,211.491 238.800,228.200 238.800 C 241.881 238.800,242.714 238.841,243.359 239.555 M264.420 239.637 C 265.035 240.787,264.609 242.171,263.393 242.968 C 262.134 243.793,261.701 243.548,261.379 241.828 C 260.898 239.264,263.296 237.536,264.420 239.637 M312.559 239.555 C 313.076 240.126,313.213 240.880,313.121 242.655 L 313.000 245.000 297.800 245.097 C 289.440 245.150,282.386 245.056,282.124 244.888 C 281.302 244.360,281.350 240.539,282.191 239.610 C 283.295 238.391,311.459 238.340,312.559 239.555 " stroke="none" fill="#7495fc" fill-rule="evenodd"></path><path id="path4" d="M213.207 155.593 C 212.183 156.617,212.126 159.177,213.100 160.364 C 213.798 161.215,213.856 161.217,231.400 161.109 L 249.000 161.000 249.139 160.018 C 249.337 158.611,248.491 156.074,247.686 155.661 C 245.991 154.791,214.071 154.729,213.207 155.593 M277.023 157.062 C 275.043 161.386,274.168 161.188,295.251 161.195 L 312.303 161.200 312.803 159.993 C 313.300 158.794,313.126 156.136,312.515 155.586 C 312.342 155.430,304.519 155.188,295.130 155.050 L 278.060 154.797 277.023 157.062 M87.190 156.226 C 86.976 156.790,86.800 157.679,86.800 158.200 C 86.800 158.721,86.976 159.610,87.190 160.174 L 87.580 161.200 108.767 161.200 L 129.955 161.200 130.577 160.311 C 130.920 159.822,131.200 158.872,131.200 158.200 C 131.200 157.528,130.920 156.578,130.577 156.089 L 129.955 155.200 108.767 155.200 L 87.580 155.200 87.190 156.226 M137.366 155.745 C 137.251 156.044,137.212 157.349,137.278 158.645 L 137.400 161.000 167.300 161.103 C 183.745 161.159,197.200 161.122,197.200 161.021 C 197.200 159.190,193.857 157.231,188.668 156.023 C 184.146 154.969,137.760 154.718,137.366 155.745 M231.000 155.624 C 247.751 155.692,248.088 155.738,248.544 158.022 C 249.041 160.507,249.784 160.401,231.115 160.505 C 212.193 160.610,213.200 160.752,213.200 157.979 C 213.200 156.141,213.894 155.087,214.933 155.346 C 215.410 155.465,222.640 155.590,231.000 155.624 M129.898 156.666 C 130.539 157.543,130.540 158.856,129.900 159.731 C 129.440 160.360,127.755 160.415,108.600 160.421 L 87.800 160.427 87.463 159.113 C 87.263 158.338,87.285 157.390,87.515 156.800 L 87.904 155.800 108.650 155.889 C 127.735 155.972,129.435 156.034,129.898 156.666 M312.546 157.109 C 312.799 157.992,312.774 158.739,312.469 159.409 L 312.017 160.400 295.085 160.400 C 275.707 160.400,276.453 160.524,277.469 157.476 L 278.111 155.552 295.141 155.676 L 312.171 155.800 312.546 157.109 M188.000 156.535 C 191.882 157.127,195.680 158.678,195.504 159.600 C 195.403 160.126,191.806 160.213,166.495 160.303 L 137.600 160.405 137.600 158.203 L 137.600 156.000 161.100 156.009 C 178.279 156.015,185.514 156.157,188.000 156.535 M87.280 167.680 C 86.641 168.319,86.667 171.265,87.320 172.158 C 87.922 172.982,128.936 173.183,130.457 172.370 C 131.545 171.787,131.522 168.200,130.426 167.614 C 129.250 166.984,87.912 167.048,87.280 167.680 M137.365 167.748 C 137.249 168.049,137.210 169.264,137.277 170.448 L 137.400 172.600 171.200 172.800 C 190.164 172.912,205.219 172.847,205.500 172.651 C 206.304 172.090,206.080 170.594,204.929 168.836 L 203.858 167.200 170.716 167.200 C 143.033 167.200,137.540 167.290,137.365 167.748 M213.100 167.632 C 212.055 168.241,212.110 171.817,213.174 172.386 C 213.677 172.655,220.859 172.800,233.731 172.800 C 256.232 172.800,254.774 173.062,252.959 169.352 L 251.906 167.200 232.853 167.212 C 220.658 167.220,213.548 167.371,213.100 167.632 M273.254 168.324 C 272.227 169.766,271.829 171.365,272.291 172.190 C 272.757 173.024,311.639 173.197,312.636 172.370 C 313.333 171.792,313.395 168.355,312.720 167.680 C 312.360 167.320,307.464 167.200,293.147 167.200 L 274.054 167.200 273.254 168.324 M129.986 168.374 C 130.674 169.659,130.488 171.525,129.626 171.986 C 129.122 172.256,121.757 172.400,108.475 172.400 C 85.536 172.400,86.900 172.594,87.379 169.404 L 87.649 167.600 108.610 167.600 C 128.925 167.600,129.585 167.624,129.986 168.374 M204.000 168.146 C 204.000 168.446,204.360 169.150,204.800 169.709 C 205.240 170.269,205.600 171.104,205.600 171.565 L 205.600 172.405 171.700 172.302 L 137.800 172.200 137.680 169.900 L 137.560 167.600 170.780 167.600 C 198.584 167.600,204.000 167.689,204.000 168.146 M252.530 169.686 C 253.098 170.833,253.466 171.868,253.348 171.986 C 253.059 172.275,215.239 172.489,214.100 172.207 C 213.204 171.986,212.713 168.621,213.467 167.867 C 213.613 167.720,222.230 167.600,232.616 167.600 L 251.498 167.600 252.530 169.686 M312.597 169.183 C 313.188 172.682,314.945 172.400,292.560 172.400 C 270.352 172.400,271.554 172.587,273.405 169.427 L 274.476 167.600 293.403 167.600 L 312.330 167.600 312.597 169.183 M100.027 179.768 C 99.756 180.094,99.608 181.239,99.678 182.468 L 99.800 184.600 108.200 184.713 C 118.812 184.856,118.400 184.955,118.400 182.257 C 118.400 180.364,118.287 180.077,117.381 179.664 C 115.785 178.937,100.641 179.027,100.027 179.768 M150.800 179.558 C 149.876 179.815,149.800 180.018,149.800 182.218 L 149.800 184.600 159.091 184.707 L 168.381 184.815 168.618 183.869 C 169.132 181.822,168.667 179.850,167.600 179.556 C 166.294 179.195,152.097 179.197,150.800 179.558 M188.400 179.556 C 187.228 179.880,186.649 183.804,187.677 184.456 C 188.586 185.033,205.741 184.877,206.552 184.285 C 207.775 183.390,207.664 179.929,206.400 179.567 C 205.119 179.199,189.724 179.190,188.400 179.556 M225.900 179.632 C 224.942 180.190,224.887 184.194,225.833 184.557 C 226.902 184.967,257.530 184.836,257.787 184.421 C 258.340 183.527,257.101 180.370,255.968 179.784 C 254.586 179.069,227.105 178.930,225.900 179.632 M270.000 179.556 C 269.210 179.775,268.895 180.249,268.501 181.816 C 267.692 185.033,266.535 184.821,284.289 184.705 L 300.200 184.600 300.322 182.468 C 300.520 179.005,301.405 179.195,285.251 179.240 C 277.413 179.262,270.550 179.404,270.000 179.556 M117.400 182.200 L 117.400 184.200 108.700 184.308 L 100.000 184.416 100.000 182.200 L 100.000 179.984 108.700 180.092 L 117.400 180.200 117.400 182.200 M168.200 182.200 L 168.200 184.200 159.100 184.308 L 150.000 184.415 150.000 182.200 L 150.000 179.985 159.100 180.092 L 168.200 180.200 168.200 182.200 M206.955 180.328 C 207.067 180.508,206.923 181.453,206.635 182.428 L 206.112 184.200 197.167 184.200 L 188.222 184.200 187.922 182.444 C 187.757 181.478,187.718 180.533,187.835 180.344 C 188.106 179.905,206.684 179.889,206.955 180.328 M256.548 181.100 C 256.861 181.705,257.180 182.650,257.258 183.200 L 257.400 184.200 241.753 184.305 L 226.105 184.409 225.890 182.505 C 225.772 181.458,225.759 180.466,225.862 180.300 C 225.964 180.135,232.782 180.000,241.013 180.000 L 255.979 180.000 256.548 181.100 M300.000 182.205 L 300.000 184.409 284.300 184.305 L 268.600 184.200 268.738 183.025 C 268.815 182.379,269.035 181.434,269.229 180.925 L 269.580 180.000 284.790 180.000 L 300.000 180.000 300.000 182.205 M266.150 191.201 C 265.683 191.386,265.104 192.099,264.865 192.786 C 264.625 193.473,264.043 194.578,263.571 195.241 C 262.358 196.944,262.469 196.975,270.394 197.140 C 278.050 197.299,281.338 196.758,281.729 195.276 C 281.832 194.886,281.927 195.062,281.954 195.692 C 282.017 197.188,282.425 197.246,292.000 197.113 L 300.200 197.000 300.303 194.600 C 300.360 193.280,300.270 192.002,300.103 191.760 C 299.732 191.222,267.444 190.690,266.150 191.201 M99.783 192.127 C 99.655 192.636,99.606 193.941,99.675 195.027 L 99.800 197.000 108.311 197.108 C 118.259 197.234,118.400 197.197,118.400 194.448 C 118.400 191.231,118.304 191.200,108.476 191.200 L 100.015 191.200 99.783 192.127 M150.028 191.766 C 149.751 192.100,149.608 193.290,149.679 194.666 L 149.800 197.000 174.825 197.000 L 199.849 197.000 201.225 195.447 C 203.064 193.370,203.293 192.923,202.997 191.992 C 202.664 190.943,150.895 190.722,150.028 191.766 M225.873 191.919 C 225.040 192.840,224.958 196.101,225.751 196.759 C 226.135 197.078,228.882 197.184,234.851 197.108 L 243.400 197.000 243.783 195.700 C 244.242 194.141,244.694 194.037,245.038 195.411 C 245.178 195.966,245.619 196.596,246.020 196.811 C 246.906 197.285,260.787 197.323,261.528 196.853 C 262.050 196.522,261.304 192.372,260.595 191.661 C 259.853 190.918,226.555 191.165,225.873 191.919 M274.800 192.001 C 282.211 192.015,283.271 192.944,279.255 195.900 C 277.944 196.865,266.594 197.290,265.227 196.425 C 263.347 195.236,265.860 191.347,268.200 191.826 C 268.640 191.916,271.610 191.994,274.800 192.001 M116.967 192.243 C 117.777 192.554,117.840 195.703,117.049 196.359 C 116.665 196.678,114.022 196.784,108.349 196.708 L 100.200 196.600 100.075 194.854 C 99.860 191.866,99.472 192.000,108.355 192.000 C 112.744 192.000,116.619 192.109,116.967 192.243 M202.278 192.659 C 202.453 193.115,201.961 193.857,200.689 195.059 L 198.847 196.800 175.056 196.800 C 161.971 196.800,150.981 196.691,150.633 196.557 C 149.986 196.309,149.690 192.843,150.267 192.267 C 150.943 191.590,202.016 191.976,202.278 192.659 M260.330 192.357 C 260.635 192.545,260.890 193.516,260.930 194.642 L 261.000 196.600 254.400 196.714 C 246.358 196.853,246.260 196.832,245.448 194.804 C 244.631 192.761,244.206 192.782,243.500 194.900 L 242.933 196.600 234.567 196.600 L 226.200 196.600 226.075 194.854 C 225.856 191.798,224.536 192.018,243.084 192.023 C 252.278 192.026,260.039 192.176,260.330 192.357 M299.920 194.508 L 300.040 196.816 291.538 196.708 L 283.035 196.600 282.513 194.800 C 281.666 191.873,281.353 191.972,291.090 192.092 L 299.800 192.200 299.920 194.508 M99.980 203.380 C 99.560 203.800,99.460 207.570,99.843 208.567 C 100.239 209.600,116.797 209.509,117.738 208.469 C 118.531 207.592,118.618 204.851,117.884 203.848 C 117.298 203.045,100.747 202.613,99.980 203.380 M173.822 203.094 C 147.727 203.218,149.616 202.987,149.606 206.067 C 149.595 209.518,146.846 209.200,176.693 209.200 L 203.300 209.200 203.042 207.900 C 202.726 206.313,199.804 203.300,198.400 203.114 C 197.850 203.041,186.790 203.032,173.822 203.094 M225.752 203.789 C 225.102 204.718,225.024 207.324,225.614 208.426 C 226.292 209.693,242.950 209.615,243.631 208.342 C 244.066 207.529,243.968 203.834,243.499 203.366 C 242.764 202.631,226.288 203.024,225.752 203.789 M249.115 203.502 C 248.495 204.250,249.104 207.246,250.090 208.296 C 250.936 209.196,250.993 209.200,262.970 209.199 L 275.000 209.199 276.100 207.457 C 277.212 205.697,277.532 203.852,276.803 203.402 C 275.957 202.879,249.553 202.975,249.115 203.502 M283.048 203.134 C 281.657 203.402,281.125 206.743,282.223 208.311 C 283.051 209.493,299.711 209.731,300.157 208.567 C 300.560 207.518,300.430 203.666,299.983 203.389 C 299.554 203.124,284.291 202.894,283.048 203.134 M117.186 204.374 C 117.777 205.478,117.697 207.421,117.038 207.968 C 116.173 208.686,100.477 208.779,100.204 208.067 C 99.908 207.294,99.954 204.180,100.267 203.867 C 101.017 203.117,116.766 203.589,117.186 204.374 M199.326 204.058 C 200.270 204.552,202.400 206.757,202.400 207.239 C 202.400 208.608,202.528 208.602,176.896 208.504 C 163.093 208.452,151.395 208.313,150.900 208.197 C 149.719 207.919,149.564 204.694,150.700 204.032 C 151.738 203.428,198.170 203.452,199.326 204.058 M243.339 205.087 C 243.587 205.950,243.556 206.739,243.247 207.487 L 242.786 208.600 234.782 208.517 C 225.579 208.422,226.000 208.540,226.000 206.043 C 226.000 203.451,225.553 203.571,234.760 203.692 L 242.971 203.800 243.339 205.087 M276.714 204.451 C 276.783 204.809,276.364 205.889,275.783 206.851 L 274.727 208.600 263.168 208.512 C 249.705 208.410,248.265 207.976,249.412 204.361 C 249.761 203.261,276.503 203.350,276.714 204.451 M299.928 205.362 C 300.208 208.785,300.668 208.611,291.579 208.517 C 282.870 208.428,282.400 208.315,282.400 206.325 C 282.400 203.550,282.323 203.572,291.518 203.692 L 299.800 203.800 299.928 205.362 M99.867 215.467 C 99.395 215.939,99.573 220.336,100.077 220.648 C 100.817 221.105,117.318 220.800,117.899 220.318 C 118.743 219.618,118.539 216.103,117.626 215.614 C 116.775 215.158,100.312 215.022,99.867 215.467 M150.078 215.543 C 149.720 215.770,149.595 216.618,149.678 218.237 L 149.800 220.600 158.972 220.708 C 166.042 220.791,168.217 220.699,168.466 220.308 C 168.962 219.525,168.858 216.218,168.320 215.680 C 167.759 215.119,150.945 214.993,150.078 215.543 M187.900 215.632 C 187.068 216.116,186.907 219.547,187.680 220.320 C 188.026 220.666,190.747 220.800,197.400 220.800 C 204.053 220.800,206.774 220.666,207.120 220.320 C 207.835 219.605,207.699 217.968,206.804 216.500 L 206.012 215.200 197.306 215.212 C 192.140 215.219,188.315 215.390,187.900 215.632 M225.680 215.680 C 224.977 216.383,225.070 219.794,225.809 220.407 C 226.658 221.112,242.560 221.097,243.412 220.390 C 244.131 219.793,244.210 216.370,243.520 215.680 C 243.177 215.337,240.631 215.200,234.600 215.200 C 228.569 215.200,226.023 215.337,225.680 215.680 M252.952 215.781 C 252.638 216.600,253.000 217.902,253.986 219.500 L 254.788 220.800 262.971 220.800 C 269.082 220.800,271.232 220.673,271.467 220.300 C 272.020 219.421,273.149 215.816,272.938 215.604 C 272.341 215.005,253.185 215.174,252.952 215.781 M282.236 215.821 C 281.325 216.733,281.376 219.852,282.311 220.352 C 283.322 220.893,299.503 221.057,300.028 220.532 C 300.256 220.304,300.389 219.055,300.322 217.758 L 300.200 215.400 291.536 215.292 C 284.053 215.199,282.786 215.271,282.236 215.821 M117.120 216.080 C 117.384 216.344,117.600 217.331,117.600 218.272 C 117.600 220.480,117.718 220.455,108.000 220.313 L 100.200 220.200 100.075 218.454 C 99.860 215.463,99.456 215.600,108.507 215.600 C 114.299 215.600,116.778 215.738,117.120 216.080 M167.771 216.229 C 168.614 217.071,168.611 219.833,167.767 220.157 C 167.419 220.291,163.564 220.400,159.200 220.400 C 154.836 220.400,150.981 220.291,150.633 220.157 C 149.841 219.853,149.728 216.177,150.500 215.865 C 151.922 215.291,167.155 215.612,167.771 216.229 M206.030 216.456 C 208.044 220.219,207.648 220.400,197.400 220.400 C 187.936 220.400,187.442 220.280,187.838 218.078 C 188.293 215.550,188.104 215.600,197.235 215.600 C 205.344 215.600,205.584 215.623,206.030 216.456 M243.354 217.492 C 243.969 220.412,243.907 220.432,234.444 220.308 L 226.200 220.200 226.075 218.454 C 225.858 215.431,225.421 215.571,234.689 215.692 L 242.997 215.800 243.354 217.492 M271.843 216.167 C 271.962 216.479,271.906 217.514,271.718 218.467 L 271.375 220.200 263.170 220.308 L 254.965 220.416 254.094 218.352 C 253.614 217.217,253.317 216.134,253.434 215.944 C 253.831 215.303,271.594 215.518,271.843 216.167 M299.800 218.000 L 299.800 220.200 291.651 220.308 C 282.016 220.437,281.433 220.194,282.793 216.618 L 283.186 215.584 291.493 215.692 L 299.800 215.800 299.800 218.000 M87.429 227.829 C 86.800 228.457,86.578 230.956,87.043 232.167 C 87.392 233.078,130.021 233.139,130.775 232.230 C 131.635 231.193,131.136 228.287,130.000 227.715 C 128.336 226.878,88.273 226.984,87.429 227.829 M137.900 227.476 C 137.159 227.669,137.147 227.707,137.047 230.200 C 136.934 232.993,134.424 232.800,170.802 232.800 L 203.905 232.800 204.887 231.500 C 206.078 229.922,206.418 228.733,205.928 227.857 C 205.575 227.227,140.252 226.861,137.900 227.476 M213.289 227.823 C 211.972 228.745,211.980 232.283,213.300 232.604 C 213.795 232.724,220.860 232.773,229.000 232.711 L 243.800 232.600 243.924 230.412 C 244.021 228.693,243.898 228.115,243.347 227.712 C 242.207 226.878,214.492 226.980,213.289 227.823 M257.840 227.721 C 257.089 228.271,257.486 231.078,258.488 232.300 C 258.957 232.872,266.257 233.006,267.120 232.458 C 268.111 231.830,268.847 228.504,268.150 227.807 C 267.342 226.999,258.924 226.929,257.840 227.721 M282.489 227.823 C 281.368 228.608,281.176 232.152,282.233 232.557 C 283.859 233.181,312.709 232.815,312.957 232.167 C 313.422 230.956,313.200 228.457,312.571 227.829 C 311.629 226.886,283.834 226.881,282.489 227.823 M130.200 230.200 L 130.200 232.200 108.800 232.200 L 87.400 232.200 87.273 230.658 C 87.037 227.779,85.327 227.982,108.889 228.096 L 130.200 228.200 130.200 230.200 M205.752 228.322 C 205.862 228.500,205.700 229.085,205.393 229.622 C 205.086 230.160,204.651 231.006,204.426 231.502 L 204.018 232.405 170.718 232.302 L 137.418 232.200 137.398 230.400 C 137.386 229.410,137.438 228.465,137.512 228.300 C 137.695 227.893,205.501 227.915,205.752 228.322 M243.400 230.200 L 243.400 232.200 228.400 232.200 L 213.400 232.200 213.273 230.658 C 213.039 227.803,211.995 227.979,228.489 228.095 L 243.400 228.200 243.400 230.200 M268.000 229.146 C 268.000 231.735,266.771 232.441,262.485 232.314 L 258.651 232.200 258.172 230.320 C 257.554 227.895,257.332 228.000,263.067 228.000 L 268.000 228.000 268.000 229.146 M312.600 230.200 L 312.600 232.200 297.600 232.200 L 282.600 232.200 282.473 230.658 C 282.239 227.803,281.195 227.979,297.689 228.095 L 312.600 228.200 312.600 230.200 M213.267 239.728 C 212.212 240.851,212.076 243.619,213.029 244.571 C 213.852 245.394,242.705 245.535,243.520 244.720 C 244.152 244.088,244.138 240.726,243.500 239.924 C 243.069 239.382,241.017 239.261,228.567 239.050 L 214.135 238.805 213.267 239.728 M282.467 239.728 C 281.412 240.851,281.276 243.619,282.229 244.571 C 283.373 245.716,312.212 245.499,312.831 244.341 C 313.321 243.426,313.122 240.141,312.545 239.616 C 312.355 239.444,305.705 239.190,297.767 239.054 L 283.335 238.805 282.467 239.728 M87.190 240.226 C 86.649 241.650,86.703 243.714,87.302 244.534 C 87.768 245.171,89.361 245.213,109.117 245.110 C 132.737 244.988,131.182 245.186,131.194 242.300 C 131.207 239.043,132.355 239.200,108.590 239.200 L 87.580 239.200 87.190 240.226 M137.383 240.127 C 137.255 240.636,137.206 241.941,137.275 243.027 L 137.400 245.000 162.200 245.000 C 189.619 245.000,188.373 245.103,194.300 242.334 C 196.372 241.366,196.800 240.997,196.800 240.183 L 196.800 239.200 167.208 239.200 L 137.615 239.200 137.383 240.127 M261.779 239.635 C 261.359 240.314,261.472 242.432,261.954 242.914 C 262.758 243.718,264.462 242.107,264.324 240.675 C 264.192 239.316,262.423 238.593,261.779 239.635 M243.162 240.605 C 243.594 241.026,243.640 241.550,243.360 242.876 L 242.997 244.600 228.425 244.705 C 217.034 244.787,213.784 244.700,213.533 244.305 C 213.086 243.601,213.120 240.640,213.580 240.180 C 214.226 239.533,242.478 239.939,243.162 240.605 M300.057 239.997 C 313.840 240.000,313.058 239.808,312.569 243.069 L 312.309 244.800 297.745 244.800 L 283.180 244.800 282.790 243.774 C 281.683 240.862,282.776 239.389,285.775 239.750 C 286.889 239.884,293.316 239.995,300.057 239.997 M130.135 240.869 C 130.416 241.315,130.431 242.046,130.178 243.069 L 129.800 244.600 108.746 244.704 L 87.692 244.807 87.432 243.073 C 86.929 239.720,85.072 239.980,108.701 240.096 C 127.834 240.191,129.751 240.260,130.135 240.869 M195.895 240.685 C 195.984 240.952,195.601 241.285,195.045 241.424 C 194.488 241.564,193.832 241.921,193.586 242.217 C 193.340 242.514,192.117 242.964,190.869 243.218 C 189.621 243.472,187.617 243.932,186.416 244.240 C 184.667 244.689,179.589 244.800,160.916 244.800 L 137.600 244.800 137.600 242.397 L 137.600 239.995 166.667 240.097 C 189.018 240.176,195.771 240.312,195.895 240.685 M263.600 240.414 C 264.111 240.756,264.053 240.939,263.216 241.640 C 262.280 242.424,262.220 242.429,261.972 241.732 C 261.447 240.261,262.318 239.556,263.600 240.414 " stroke="none" fill="#8dacfc" fill-rule="evenodd"></path></g></svg>