<svg id="svg" version="1.1" xmlns="http://www.w3.org/2000/svg" xmlns:xlink="http://www.w3.org/1999/xlink" width="400" height="316.4810690423163" viewBox="0, 0, 400,316.4810690423163"><g id="svgg"><path id="path0" d="M107.725 83.475 L 107.127 84.100 107.127 199.704 L 107.127 315.307 107.589 315.894 L 108.050 316.481 146.448 316.481 L 184.847 316.481 184.949 315.980 C 185.005 315.704,185.107 263.554,185.176 200.091 C 185.304 82.753,185.308 83.541,184.540 83.021 C 184.407 82.931,167.204 82.856,146.311 82.854 L 108.324 82.851 107.725 83.475 M292.513 294.209 C 292.513 295.741,292.549 296.367,292.593 295.601 C 292.636 294.836,292.636 293.583,292.593 292.817 C 292.549 292.052,292.513 292.678,292.513 294.209 M292.491 300.334 C 292.493 300.947,292.536 301.171,292.587 300.832 C 292.639 300.494,292.637 299.992,292.584 299.719 C 292.532 299.445,292.490 299.722,292.491 300.334 " stroke="none" fill="#96af58" fill-rule="evenodd"></path><path id="path1" d="M322.362 0.469 C 321.839 1.047,321.822 315.975,322.345 316.308 C 323.013 316.733,399.244 316.502,399.631 316.074 C 399.974 315.696,400.000 304.427,400.000 158.420 L 400.000 1.174 399.538 0.587 L 399.077 0.000 360.931 0.000 L 322.786 0.000 322.362 0.469 " stroke="none" fill="#943434" fill-rule="evenodd"></path><path id="path2" d="M0.000 239.530 L 0.000 316.481 38.429 316.481 L 76.858 316.481 77.404 315.934 L 77.951 315.388 77.951 239.567 C 77.951 165.247,77.943 163.736,77.525 163.221 L 77.100 162.695 38.550 162.637 L 0.000 162.580 0.000 239.530 " stroke="none" fill="#4590ba" fill-rule="evenodd"></path><path id="path3" d="M215.050 130.404 C 214.765 130.712,214.469 131.276,214.392 131.657 C 214.055 133.343,214.242 315.266,214.581 315.715 C 214.908 316.147,215.033 309.099,215.033 290.312 C 215.033 247.434,215.182 226.214,215.477 226.893 C 215.854 227.760,216.306 227.810,217.987 227.171 C 219.473 226.607,221.267 226.601,223.655 227.153 C 226.710 227.859,230.438 228.170,232.333 227.875 C 235.386 227.401,237.874 227.332,239.508 227.676 C 240.821 227.953,241.191 227.955,242.059 227.694 C 245.627 226.620,250.960 226.470,255.679 227.310 C 257.298 227.599,258.842 227.674,262.249 227.630 C 264.699 227.598,267.706 227.562,268.931 227.548 C 270.209 227.535,271.351 227.631,271.609 227.775 C 271.963 227.971,272.539 227.905,274.282 227.469 C 276.849 226.826,280.902 226.692,287.330 227.035 C 292.447 227.308,291.981 228.046,291.986 219.655 C 291.988 215.295,292.063 213.143,292.205 213.363 C 292.324 213.547,292.422 213.589,292.424 213.456 C 292.426 213.323,292.358 213.145,292.273 213.060 C 291.999 212.786,291.999 212.154,292.273 211.977 C 292.475 211.846,292.467 211.758,292.242 211.612 C 291.891 211.386,291.859 211.128,292.159 210.938 C 292.631 210.639,292.596 131.153,292.124 130.457 L 291.708 129.844 253.639 129.844 L 215.569 129.844 215.050 130.404 M215.306 216.759 C 215.256 217.158,215.216 216.832,215.216 216.036 C 215.216 215.239,215.256 214.914,215.306 215.312 C 215.355 215.710,215.355 216.361,215.306 216.759 M292.266 218.040 C 292.248 218.285,292.327 218.486,292.441 218.486 C 292.556 218.486,292.650 218.285,292.650 218.040 C 292.650 217.795,292.571 217.595,292.475 217.595 C 292.379 217.595,292.285 217.795,292.266 218.040 M292.344 220.518 C 292.158 221.446,292.338 221.626,292.539 220.713 C 292.624 220.328,292.646 219.966,292.590 219.910 C 292.533 219.853,292.422 220.127,292.344 220.518 M292.208 221.771 C 292.218 222.259,292.644 222.583,292.647 222.105 C 292.649 221.829,292.550 221.604,292.428 221.604 C 292.305 221.604,292.206 221.679,292.208 221.771 M292.360 226.814 C 292.269 227.046,292.247 227.288,292.311 227.352 C 292.514 227.555,292.693 227.222,292.608 226.799 C 292.530 226.412,292.518 226.412,292.360 226.814 M292.284 230.846 C 292.326 231.572,292.650 231.572,292.650 230.846 C 292.650 230.540,292.561 230.290,292.451 230.290 C 292.342 230.290,292.266 230.540,292.284 230.846 " stroke="none" fill="#ce934e" fill-rule="evenodd"></path><path id="path4" d="M291.994 219.074 C 291.976 223.224,291.873 226.291,291.744 226.533 C 291.384 227.205,290.566 227.259,285.370 226.956 C 279.769 226.630,277.336 226.749,274.212 227.505 C 272.531 227.911,271.962 227.970,271.609 227.775 C 271.351 227.631,270.209 227.535,268.931 227.548 C 267.706 227.562,264.699 227.598,262.249 227.630 C 258.842 227.674,257.298 227.599,255.679 227.310 C 250.960 226.470,245.627 226.620,242.059 227.694 C 241.191 227.955,240.821 227.953,239.508 227.676 C 237.874 227.332,235.386 227.401,232.333 227.875 C 230.438 228.170,226.710 227.859,223.655 227.153 C 221.267 226.601,219.473 226.607,217.987 227.171 C 216.306 227.810,215.854 227.760,215.477 226.893 C 215.203 226.264,215.157 230.058,215.121 255.791 C 215.099 272.082,215.070 292.378,215.057 300.891 L 215.033 316.370 253.276 316.426 L 291.518 316.482 291.952 316.017 C 292.614 315.307,292.595 316.506,292.558 276.212 C 292.528 243.163,292.482 238.255,292.197 238.075 C 291.912 237.895,291.913 237.868,292.205 237.862 C 292.502 237.856,292.502 237.831,292.205 237.636 C 291.963 237.477,291.942 237.370,292.129 237.249 C 292.279 237.151,292.395 236.470,292.404 235.634 C 292.413 234.838,292.467 233.962,292.523 233.686 C 292.583 233.390,292.516 233.183,292.359 233.181 C 292.192 233.179,292.176 233.117,292.316 233.014 C 292.647 232.771,292.689 231.849,292.369 231.845 C 292.189 231.843,292.209 231.767,292.428 231.626 C 292.611 231.507,292.658 231.408,292.531 231.407 C 292.232 231.402,292.220 230.448,292.516 230.247 C 292.671 230.143,292.671 229.738,292.515 228.979 C 292.390 228.366,292.369 227.915,292.469 227.976 C 292.569 228.038,292.650 227.941,292.650 227.760 C 292.650 227.579,292.542 227.395,292.410 227.351 C 292.242 227.295,292.253 227.086,292.445 226.664 C 292.656 226.203,292.661 225.925,292.468 225.501 C 292.314 225.162,292.300 224.944,292.432 224.944 C 292.736 224.944,292.706 224.332,292.397 224.229 C 292.217 224.169,292.231 224.005,292.448 223.658 C 292.693 223.265,292.700 223.034,292.481 222.455 C 292.332 222.061,292.287 221.683,292.382 221.615 C 292.622 221.443,292.665 218.486,292.427 218.486 C 292.320 218.486,292.248 218.285,292.266 218.040 C 292.285 217.795,292.404 217.593,292.531 217.591 C 292.658 217.589,292.611 217.491,292.428 217.372 C 292.244 217.253,292.203 217.155,292.336 217.153 C 292.477 217.151,292.574 216.727,292.567 216.147 C 292.561 215.596,292.502 215.145,292.436 215.145 C 292.370 215.145,292.338 214.443,292.364 213.586 C 292.390 212.728,292.324 212.027,292.217 212.027 C 292.111 212.027,292.010 215.198,291.994 219.074 M215.216 216.036 C 215.216 216.832,215.256 217.158,215.306 216.759 C 215.355 216.361,215.355 215.710,215.306 215.312 C 215.256 214.914,215.216 215.239,215.216 216.036 " stroke="none" fill="#b78445" fill-rule="evenodd"></path></g></svg>