<?xml version="1.0" encoding="UTF-8"?>
<!DOCTYPE svg PUBLIC "-//W3C//DTD SVG 1.1//EN" "http://www.w3.org/Graphics/SVG/1.1/DTD/svg11.dtd">
<svg xmlns="http://www.w3.org/2000/svg" version="1.1" width="200px" height="200px" style="shape-rendering:geometricPrecision; text-rendering:geometricPrecision; image-rendering:optimizeQuality; fill-rule:evenodd; clip-rule:evenodd" xmlns:xlink="http://www.w3.org/1999/xlink">
<g><path style="opacity:0.999" fill="#f8f8f9" d="M -0.5,-0.5 C 66.1667,-0.5 132.833,-0.5 199.5,-0.5C 199.5,66.1667 199.5,132.833 199.5,199.5C 132.833,199.5 66.1667,199.5 -0.5,199.5C -0.5,132.833 -0.5,66.1667 -0.5,-0.5 Z"/></g>
<g><path style="opacity:1" fill="#810000" d="M 44.5,48.5 C 49.8333,48.5 55.1667,48.5 60.5,48.5C 60.5,53.8333 60.5,59.1667 60.5,64.5C 55.1667,64.5 49.8333,64.5 44.5,64.5C 44.5,59.1667 44.5,53.8333 44.5,48.5 Z"/></g>
<g><path style="opacity:1" fill="#820202" d="M 105.5,48.5 C 105.5,53.8333 105.5,59.1667 105.5,64.5C 94.5,64.5 83.5,64.5 72.5,64.5C 72.5,59.1667 72.5,53.8333 72.5,48.5C 83.5,48.5 94.5,48.5 105.5,48.5 Z"/></g>
<g><path style="opacity:1" fill="#cb0000" d="M 105.5,48.5 C 121.833,48.5 138.167,48.5 154.5,48.5C 154.5,53.8333 154.5,59.1667 154.5,64.5C 138.167,64.5 121.833,64.5 105.5,64.5C 105.5,59.1667 105.5,53.8333 105.5,48.5 Z"/></g>
<g><path style="opacity:1" fill="#f2bf43" d="M 121.5,77.5 C 121.5,77.1667 121.5,76.8333 121.5,76.5C 138.167,76.5 154.833,76.5 171.5,76.5C 171.5,82.1667 171.5,87.8333 171.5,93.5C 154.833,93.5 138.167,93.5 121.5,93.5C 121.5,93.1667 121.5,92.8333 121.5,92.5C 137.833,92.5 154.167,92.5 170.5,92.5C 170.5,87.5 170.5,82.5 170.5,77.5C 154.167,77.5 137.833,77.5 121.5,77.5 Z"/></g>
<g><path style="opacity:1" fill="#ec7d14" d="M 60.5,76.5 C 71.5,76.5 82.5,76.5 93.5,76.5C 93.5,82.1667 93.5,87.8333 93.5,93.5C 82.5,93.5 71.5,93.5 60.5,93.5C 60.5,87.8333 60.5,82.1667 60.5,76.5 Z"/></g>
<g><path style="opacity:1" fill="#ec7d13" d="M 121.5,76.5 C 121.5,76.8333 121.5,77.1667 121.5,77.5C 121.5,82.5 121.5,87.5 121.5,92.5C 121.5,92.8333 121.5,93.1667 121.5,93.5C 116.167,93.5 110.833,93.5 105.5,93.5C 105.5,87.8333 105.5,82.1667 105.5,76.5C 110.833,76.5 116.167,76.5 121.5,76.5 Z"/></g>
<g><path style="opacity:1" fill="#efaa00" d="M 121.5,77.5 C 137.833,77.5 154.167,77.5 170.5,77.5C 170.5,82.5 170.5,87.5 170.5,92.5C 154.167,92.5 137.833,92.5 121.5,92.5C 121.5,87.5 121.5,82.5 121.5,77.5 Z"/></g>
<g><path style="opacity:1" fill="#449e3a" d="M 27.5,105.5 C 33.1667,105.5 38.8333,105.5 44.5,105.5C 44.5,110.833 44.5,116.167 44.5,121.5C 38.8333,121.5 33.1667,121.5 27.5,121.5C 27.5,116.167 27.5,110.833 27.5,105.5 Z"/></g>
<g><path style="opacity:1" fill="#409c34" d="M 89.5,105.5 C 89.5,110.833 89.5,116.167 89.5,121.5C 78.5,121.5 67.5,121.5 56.5,121.5C 56.5,116.167 56.5,110.833 56.5,105.5C 67.5,105.5 78.5,105.5 89.5,105.5 Z"/></g>
<g><path style="opacity:1" fill="#91d400" d="M 89.5,105.5 C 111.167,105.5 132.833,105.5 154.5,105.5C 154.5,110.833 154.5,116.167 154.5,121.5C 132.833,121.5 111.167,121.5 89.5,121.5C 89.5,116.167 89.5,110.833 89.5,105.5 Z"/></g>
<g><path style="opacity:1" fill="#0087ce" d="M 44.5,134.5 C 55.1667,134.5 65.8333,134.5 76.5,134.5C 76.5,139.5 76.5,144.5 76.5,149.5C 65.8333,149.5 55.1667,149.5 44.5,149.5C 44.5,144.5 44.5,139.5 44.5,134.5 Z"/></g>
<g><path style="opacity:1" fill="#0f8bcf" d="M 105.5,133.5 C 105.5,139.167 105.5,144.833 105.5,150.5C 100.167,150.5 94.8333,150.5 89.5,150.5C 89.5,144.833 89.5,139.167 89.5,133.5C 94.8333,133.5 100.167,133.5 105.5,133.5 Z"/></g>
<g><path style="opacity:1" fill="#10bae4" d="M 105.5,133.5 C 116.5,133.5 127.5,133.5 138.5,133.5C 138.5,139.167 138.5,144.833 138.5,150.5C 127.5,150.5 116.5,150.5 105.5,150.5C 105.5,144.833 105.5,139.167 105.5,133.5 Z"/></g>
<g><path style="opacity:1" fill="#42a5d9" d="M 44.5,134.5 C 55.3206,133.505 66.3206,133.172 77.5,133.5C 77.5,139.167 77.5,144.833 77.5,150.5C 66.3206,150.828 55.3206,150.495 44.5,149.5C 55.1667,149.5 65.8333,149.5 76.5,149.5C 76.5,144.5 76.5,139.5 76.5,134.5C 65.8333,134.5 55.1667,134.5 44.5,134.5 Z"/></g>
</svg>
