<?xml version="1.0" standalone="no"?>
<!DOCTYPE svg PUBLIC "-//W3C//DTD SVG 20010904//EN"
 "http://www.w3.org/TR/2001/REC-SVG-20010904/DTD/svg10.dtd">
<svg version="1.0" xmlns="http://www.w3.org/2000/svg"
 width="200.000000pt" height="200.000000pt" viewBox="0 0 200.000000 200.000000"
 preserveAspectRatio="xMidYMid meet">
<metadata>
Created by potrace 1.14, written by Peter Selinger 2001-2017
</metadata>
<g transform="translate(0.000000,200.000000) scale(0.100000,-0.100000)"
fill="#000000" stroke="none">
<path d="M950 1899 c-112 -6 -128 -9 -230 -41 -301 -93 -539 -358 -605 -674
-19 -92 -21 -253 -5 -345 69 -377 374 -674 755 -734 62 -10 234 -7 295 5 30 6
66 14 80 16 14 3 54 17 90 31 342 137 570 469 571 829 1 208 -38 340 -147 509
-110 169 -274 296 -461 358 -60 20 -135 39 -168 42 -33 4 -62 8 -65 9 -3 1
-52 -1 -110 -5z"/>
</g>
</svg>
